<?xml version="1.0" encoding="UTF-8"?>
<svg id="_Слой_1" data-name=" Слой 1" xmlns="http://www.w3.org/2000/svg" baseProfile="tiny" version="1.2" viewBox="0 0 222.7234043 52.7006631">
  <path d="M293.1187718,3.3104679c-.0509644,0-.1239624-.1634521-.1619873-.3632812-.0380249-.1997681-.1149902-.3632812-.1699829-.3632812s-.1000366-.1464844-.1000366-.3254395c0-.2138672-.0910034-.407959-.2630005-.5661011-.1449585-.1321411-.2639771-.2914429-.2639771-.3540649s-.117981-.2219849-.2630005-.354187c-.1450195-.1324463-.2630005-.2936401-.2630005-.3583984,0-.0648193-.0490112-.1179199-.1099854-.1179199-.1030273,0-.2220459-.0811157-.5700073-.3892212-.0809937-.0712891-.197998-.1297607-.2600098-.1297607s-.1129761-.0466919-.1129761-.1038208c0-.0570068-.0650024-.1038208-.1450195-.1038208-.0789795,0-.2039795-.0699463-.276001-.1557007-.0720215-.0855713-.2200317-.1557007-.3280029-.1557007-.1090088,0-.197998-.0406494-.197998-.0904541s-.1890259-.1204224-.4210205-.1569214c-.2319946-.0366211-.4209595-.1124878-.4209595-.1690063,0-.1661987-2.632019-.1110229-2.9470215.0617065-.1450195.0792236-.3699951.1447144-.5.1456299-.1309814.0007935-.2369995.0481567-.2369995.1052856,0,.0570679-.1190186.1037598-.2630005.1037598-.1640015,0-.2639771.0588989-.2639771.1557007,0,.0888062-.0940552.1557007-.2190552.1557007-.2549438,0-1.8859863,1.5780029-1.8859863,1.8239136,0,.1470337-.0679932.2523804-.3949585.6116333-.0720215.0795898-.1310425.2647705-.1310425.4116821,0,.1467896-.0429688.2669067-.0960083.2669067-.052002,0-.1279907.2334595-.1669922.5189819-.039978.2854004-.1159668.5189819-.1679688.5189819-.0530396,0-.0950317.3503418-.0950317.7785034,0,.4282227.0410156.7785034.0910034.7785034.0510254,0,.1240234.2803345.1630249.6228027.039978.3425903.1170044.6228027.1719971.6228027s.0999756.1401978.0999756.3114014c0,.1713257.0460205.3114014.1030273.3114014s.1329956.1168213.1690063.2595215c.0369873.1427612.1090088.2594604.1599731.2594604.052002,0,.0939941.0501099.0939941.1112061,0,.0612183.059021.1763916.132019.2560425.3120117.3435059.3939819.4608765.3939819.5626831,0,.0595093.0510254.1080933.1130371.1080933.1459961,0,.4140015.2640991.4140015.4078979,0,.0610962.0949707.111084.2099609.111084.1160278,0,.2109985.046814.2109985.1039429,0,.0570068.06604.1037598.1459961.1037598.0809937,0,.1740112.0700073.2080078.1557007.03302.0856323.1560059.1557007.2739868.1557007.118042,0,.2140503.0466919.2140503.1038208,0,.0570068.105957.1052246.2369995.1071167.1300049.001709.3289795.0717773.440979.1557007.1119995.0836792.3850098.1524048.6049805.1524048.2210083,0,.401001.0466919.401001.1037598,0,.0610352.3690186.1038208.8950195.1038208s.8950195-.0427856.8950195-.1038208c0-.0570679.2160034-.1037598.480957-.1037598.2870483,0,.5450439-.0627441.6390381-.1557007.0869751-.0857544.2730103-.1557007.4129639-.1557007.1409912,0,.2560425-.046814.2560425-.1038208,0-.0571289.0709839-.1038208.157959-.1038208.0870361,0,.15802-.0435791.15802-.0968628,0-.0532227.0969849-.1273193.2160034-.1645508.2539673-.0794678,1.572998-1.3343506,1.572998-1.4963989,0-.060791.0469971-.1106567.1040039-.1106567.0559692,0,.1329956-.1166992.1690063-.2595215.0360107-.1427002.1079712-.2595215.1599731-.2595215.0510254,0,.0939941-.1166992.0939941-.2594604,0-.1427002.0450439-.2595215.1000366-.2595215s.131958-.1635132.1699829-.3632812c.0380249-.1998291.1110229-.3632812.1619873-.3632812.052002,0,.0939941-.6773071.0939941-1.505127s-.0419922-1.505127-.0939941-1.505127ZM292.054807,6.0093204c-.0580444,0-.1050415.1078491-.1050415.2396851,0,.1317749-.0700073.3302612-.1549683.4411011-.085022.1107788-.1560059.2832031-.15802.3831787-.0009766.0999146-.0499878.1815796-.1079712.1815796-.0580444,0-.1050415.0701294-.1050415.1557007,0,.0857544-.0719604.1557007-.157959.1557007-.0870361,0-.15802.0522461-.15802.1161499,0,.1508789-.7819824.921875-.9349976.921875-.0650024,0-.117981.0701294-.117981.1557007,0,.0864868-.0930176.1557007-.210022.1557007-.1160278,0-.2109985.046814-.2109985.1038208,0,.0570679-.0910034.1037598-.2030029.1037598s-.2739868.0701294-.3610229.1557007c-.0939941.0931396-.3519897.1557007-.6389771.1557007-.2650146,0-.4810181.046814-.4810181.1039429,0,.0570068-.2369995.1037598-.526001.1037598-.289978,0-.5269775-.0467529-.5269775-.1037598,0-.0571289-.2330322-.1039429-.5189819-.1039429-.3200073,0-.5790405-.0592651-.6760254-.1557007-.0869751-.0855713-.2559814-.1557007-.3759766-.1557007s-.2180176-.0466919-.2180176-.1037598c0-.0570068-.0709839-.1038208-.15802-.1038208-.0869751,0-.157959-.0435791-.157959-.0968018,0-.0532837-.1040039-.1293945-.2320557-.1693726-.2709961-.0848389-.5049438-.2946167-.5049438-.4530029,0-.0610962-.0710449-.1112061-.15802-.1112061-.0870361,0-.15802-.0700073-.15802-.1557007,0-.0856323-.0469971-.1557007-.1049805-.1557007s-.1049805-.0722046-.1049805-.1607056c0-.0883179-.1190186-.2687988-.2630005-.401001-.1700439-.1553955-.2640381-.3527832-.2640381-.5574341,0-.1741943-.0529785-.3342896-.117981-.3557739s-.1420288-.2822266-.1710205-.5795288c-.0289917-.2973633-.0939941-.5405884-.1449585-.5405884-.0500488,0-.092041-.1634521-.092041-.3632812s.0410156-.3632812.0910034-.3632812c.0490112,0,.117981-.2678223.1530151-.5952148.0339966-.3273926.1110229-.6115112.1719971-.6314087.0609741-.0200195.1099854-.1724854.1099854-.3389893s.0369873-.3027954.0820312-.3027954c.0449829,0,.1699829-.1635132.2799683-.3632812.1090088-.1998291.2380371-.3633423.2869873-.3633423.0480347,0,.0880127-.0700684.0880127-.1557007,0-.0856934.0510254-.1557007.1130371-.1557007.1459961,0,.4140015-.2640991.4140015-.4078979,0-.0610962.0489502-.111084.1089478-.111084.0610352,0,.2140503-.0952148.3400269-.211731.1270142-.116394.3380127-.2381592.4699707-.2706909.1310425-.0324707.2390137-.100769.2390137-.1516724s.1650391-.0925903.368042-.0925903.367981-.0432129.367981-.0961914c0-.1473999.2819824-.1900024,1.34198-.203125.5800171-.0072021.973999.02948.973999.0905151,0,.0564575.1900024.1323853.4210205.1690063.2319946.036499.4210205.1070557.4210205.1568604,0,.0499268.0959473.0905151.2139893.0905151.117981,0,.2409668.0701294.2739868.1558228.0339966.0855713.151001.1557007.2600098.1557007.1099854,0,.2000122.0466919.2000122.1037598,0,.0570068.0709839.1038208.157959.1038208.0859985,0,.1570435.0700073.1570435.1557007,0,.0855713.0509644.1557007.1129761.1557007.1459961,0,.4140015.2639771.4140015.4077759,0,.0610962.0460205.1112061.1029663.1112061.0570068,0,.1330566.1166992.1690063.2595215.0370483.1427002.1090088.2595215.1600342.2595215.052002,0,.0939941.1166992.0939941.2594604,0,.161499.0599976.2595215.15802.2595215.1099854,0,.157959.1095581.157959.3632812,0,.1998291.0469971.3632812.1050415.3632812.0639648,0,.1049805.4671021.1049805,1.1937256s-.0410156,1.1937256-.1049805,1.1937256Z" fill="#191919" stroke-width="0"/>
  <path d="M290.186765,7.6016666c-.072998-.0288696-.131958-.1187744-.131958-.199646,0-.0810547-.0370483-.1471558-.0810547-.1471558-.0449829,0-.1709595-.1634521-.2799683-.3632812-.1090088-.1997681-.2379761-.3632812-.2869873-.3632812s-.0889893-.1168213-.0889893-.2595215c0-.161499-.059021-.2594604-.15802-.2594604-.0859985,0-.15802-.0488281-.15802-.1085205,0-.0596313-.117981-.2252808-.2630005-.367981-.3150024-.3112183-.3399658-.5615234-.0559692-.5615234.2739868,0,.8460083-.5595093.8460083-.8269043,0-.1160889.052002-.2111206.1159668-.2111206.117981,0,.085022-.5769043-.0709839-1.1936646-.0830078-.3331299-.40802-.6746826-.6400146-.6746826-.0780029,0-.1419678-.0467529-.1419678-.1038208,0-.0656128-.7369995-.1038208-2.0020142-.1038208h-2.0010376l.0280151,2.9841919.0280151,2.984314.2470093.0346069c.1359863.0189819.3599854.0067139.4970093-.0270996.242981-.0601807.25-.0933838.2789917-1.3320923l.0289917-1.2703857.6240234.003479c.3939819.0021973.6399536.0501099.6669922.1298218.0229492.069397.0889893.1261597.1469727.1261597.1380005,0,.4039917.2681274.4039917.4078369,0,.0611572.0480347.1112061.1060181.1112061.0570068,0,.1049805.0700684.1049805.1557007,0,.0855713.0710449.1557007.15802.1557007s.15802.0922852.15802.2075806c0,.1141968.0469971.2075806.1049805.2075806s.1049805.0701294.1049805.1557007c0,.0856934.0440063.1557007.0980225.1557007s.1300049.0983887.1690063.218689c.1369629.4255371.3919678.6118164.8349609.6102295.4540405-.0018311.8470459-.1791992.6090088-.2745361ZM287.9237645,4.2430851c-.1599731.0009155-.289978.0483398-.289978.1054077,0,.0604248-.3469849.1038208-.8309937.1038208-.6600342,0-.8439941-.0336304-.8950195-.1642456-.0910034-.2344971-.0789795-1.5506592.0159912-1.6436768.0430298-.0429077.552002-.0623169,1.1310425-.0432739,1.0130005.0332642,1.065979.0467529,1.3949585.3572998.3930054.3706055.4100342.4615479.1600342.8487549-.2380371.3696289-.3400269.434021-.6860352.4359131Z" fill="#191919" stroke-width="0"/>
  <path d="M32.9058596,4.0030611c-.0817166-.1261036-.1517456-.204941-.1517456-.2050617-.0455913-.2126678-.2791983-.4215325-.4190631-.3746888-.0473782.0158761-.100552-.0379699-.1180833-.1198256-.0175314-.0817953-.0861598-.130631-.1525666-.1083561-.0663585.0222145-.1280806.0059762-.1371119-.0362193-.0090313-.0420748-.1611149-.1181353-.3380709-.1690839-.1769077-.0509485-.3297157-.1302688-.3395681-.176207s-.0928729-.0584338-.1845384-.0277681c-.0917138.0307261-.235394.0071835-.3192838-.052518-.0838416-.0595808-.2404167-.0788977-.3479233-.0428595-.10741.0359779-.2049676.0208261-.2166552-.0337443-.0116876-.0545101-.1030633-.073163-.2029391-.0417126-.0998758.0316315-.2660135.0155743-.3691252-.0357968-.1030633-.0513107-.2709397-.0653155-.3730854-.0310882-.102194.0342273-.194101.0234218-.2042914-.0240255-.0101421-.0473869-.1942942-.0528198-.4093073-.011892-.2150131.0409882-.4145715.0297602-.4436939-.0246895-.0289775-.0544497-.2125983-.0455156-.4080516.0199206-.1955016.0654966-.363716.0801654-.3739064.0327181-.0101421-.0475077-.2043397-.0555967-.4314751-.0179889-.2270388.0375474-.4439354.0322352-.4818477-.0118316-.0379122-.0439461-.2477577-.0201621-.4664413.0530613s-.4059266.0940495-.4161653.0463004c-.0102387-.0478095-.2295019-.0389358-.4872085.0198603-.2577066.0586149-.4935353.0598826-.5239616.0027768-.0350628-.0657984-.2734994-.0307261-.6520422.0961019-.3281703.1098653-.605147.1603308-.6154823.1121592-.0103353-.0481113-.2607976-.0398412-.5565613.0184719-.2957155.0584338-.5465158.0651344-.5572858.0148499-.01077-.0501034-.2911274-.0003018-.6230164.1108311-.3318408.1111933-.6118118.1627455-.6221471.1146945-.0103353-.0481717-.333193-.0159365-.717628.0714124-.3843866.0872886-.7076307.1182561-.7183041.0685752-.0106251-.0495601-.2546157-.0114695-.5423141.0848739-.5000552.167454-.525169.1646168-.5745274-.0656777-.028398-.132442-.0116393-.3259739.0371395-.430044.0489237-.1040098.0749552-.2537163.0580033-.3328555-.0169518-.0790185.0116393-.2173763.0634124-.307502.0518697-.0901861.0762591-.2477401.0543328-.3500597-.0219746-.1023799-.0036705-.1983008.0405202-.2131507.0442873-.0147896.0421623-.2054239-.0045881-.4235849-.0467987-.218161-.0488271-.408735-.0045398-.4235849.044239-.0147896.0421623-.2055446-.0045881-.4235849-.0750517-.3501804-.1072168-.3892369-.2738375-.3334592-.2094591.0701447-.8478819,1.3065515-.8623223,1.6701935-.004733.1186786-.0423072.2270348-.0835518.2408585-.0412929.0138237-.0607562.0919971-.0431765.1738527.0175314.0817953-.0224576.1669711-.0888161.1891856-.0664068.0222145-.1063475.1072695-.0888161.1891856.0175797.0817953-.0042983.1608138-.0485856.1756637-.044239.0148499-.0634607.1062433-.0426452.2032507.0784325.3659962-.1725611.6128309-.8553677.8414955-.3534773.1183768-.6511246.1759052-.6614599.1276127-.0103353-.048051-.2970195-.0277681-.6371188.0449723-.3400994.0728612-.6271216.0916349-.637795.0417729-.0106734-.0498016-.2390161-.0172042-.5074445.0726801s-.5660273.1412553-.6615082.1140305c-.0952394-.0271041-.3982958-.0041049-.6731475.0510089-.2749.0551137-.5080723.0618747-.5181178.0152121-.0100455-.0468437-.235394-.0123146-.5009728.0766642-.2655306.0889184-.4917966.1192823-.5029047.0674887-.011108-.0519144-.243894-.051854-.5173934,0-.2733545.0519144-.5054643.0555363-.5156548.008089-.0101904-.0475077-.1964675-.0268023-.4140886.0461193-.2176211.0728612-.4193528.0878318-.448282.0333821-.0291224-.0544497-.2286808-.0656777-.4436939-.0246291-.1608735.030545-.3043604.0351327-.3707189.015695-.1634331.0153932-.3237754.0213694-.4790948.0118316-.1186146.0150914-.2348144.001811-.2975507-.0383321-.0859183-.0141859-.1700497-.0326578-.2530702-.0542082-.0351594.0017506-.0724438-.0019921-.1025804.008089-.10741.0359779-.2049676.0208261-.2166552-.0337443s-.1143646-.0679716-.2281013-.0298809c-.113785.0380906-.2756244.0205243-.359466-.0390565-.0839865-.0595808-.2224024-.0849343-.3077411-.056321-.0853871.0285529-.1637229.0121335-.1741065-.0365211-.0104319-.0485943-.1065889-.0863831-.2137574-.083727-.0543328.0012677-.1288533-.0144274-.2050642-.0402034-.3913412.019981-.7593556-.0325974-1.1006141-.1489218-.418725-.024448-.810839-.1255603-1.1653305-.3083471-.1491376.0034408-.2882779-.0216109-.4288671-.0426784-.0623499.0629612-.1401545.1117366-.2073824.1702308-.3287498.4882364-.758776.9013177-1.2971299,1.2040509-.1591348.3176434-.340534.6212217-.5715331.887494-.0655858.1960069-.1311715.3920138-.1967573.588081.0101904.0496205.0220229.098758.0294122.1491029.0002898.0009658.0031875.0033201.0033807.0042256.0348213.1623833.7578584.6363734.8987374.5892279.0460742-.0154536.091907.009417.1017593.0554759.0098041.0458778.1718849.1230853.3601904.1715588.1882089.0485339.3653098.1053982.3935629.1265262.1435836.1073299.576749.2295097.6851249.1932301.0679523-.0227578.1323306-.0002415.1431006.0499827.0107217.0501638.1344556.0842703.2749.0757587.1404926-.0085719.2642266.0255346.2749483.0756984.01077.0502845.1463364.0488961.3011729-.0029579s.2906927-.0517333.301849.0003622c.0112046.0520351.153291.0815538.3158548.0654362.1626121-.0160572.3041189.0106243.3144543.0589168.0104319.0485339.1636746.0397205.3407272-.0196188.1770043-.059279.3305368-.0670661.3412102-.0172645.0106734.0497412.1706292.0720161.355554.0496808.1848765-.022456.3449289-.0001811.3556023.0496205.0106734.0497412.1822685.0358571.3813923-.0307864.1991238-.0667039.3705257-.0817953.380861-.0334425.0103353.0481717.2245274.0516729.4759073.0076061.2514282-.0440065.4660066-.0386339.4768732.0120127.0108183.0505259.2338968.0202828.4957569-.0674283.2618118-.0876507.4984131-.1172902.5258452-.0657381.0274803.0514314.317835.0328992.6451359-.04129.3273492-.0741289.60336-.0966452.6133573-.0499827.0099972.0466022.2867324-.0051914.6149027-.1151171.328122-.1099256.6182351-.1595461.6447013-.1102275.0262729.0492583.3890713.0067006.8060094-.0945928.4169863-.1014745.7663102-.146326.7762591-.099905.0099006.0463004.377915-.0362797.8178419-.1836319s.8275493-.2356067.8614047-.1961276c.033952.0394187.3589347.0056744.7220229-.0750344.3631365-.0806483.6691873-.1052171.6801021-.0543893.0108666.050707-.0164689.104372-.0606596.1191616-.044239.0148499-.066117.0939891-.0485856.1757241.0175797.081916-.0043466.1608741-.0485856.1756637-.0442873.0148499-.0565061.1385389-.0272872.2749046.0292673.1364261.017628.2598132-.02579.2743613-.0433214.0144877-.0776597.1455413-.0762591.2912033.0014972.1457224-.0296054.275629-.0690631.2888491-.0394094.0132201-.0614806.0718953-.048972.1302688.0125569.0585546-.0090796.1836319-.0481027.2782247-.1771009.4290782-.2064647.5454629-.174831.6929963.0185456.0866245-.0345798.291324-.1180833.4546128-.0835518.1635302-.1315096.3924967-.1064923.5090022.0249207.1163847.0099006.2235939-.0335173.238142s-.0777563.1455413-.0762591.2912637c.0015455.145662-.0296054.275629-.0690631.2888491-.039506.0132201-.0574238.0909105-.0398924.1727661.0175797.0817953-.0035256.1606327-.0470402.1751808-.0433214.0144877-.0776597.1456017-.0762108.2912637.0015455.1456017-.0296054.2755686-.0690148.2887887-.039506.0132201-.0526908.1133061-.0292673.2223866.0233752.1090805.0102387.2091062-.0292673.2223262-.0394577.0132201-.0705119.1432474-.0690631.2888491.0014972.145662-.0328412.2767156-.0762591.2912637s-.0645233.0933855-.0469919.1751204c.0175314.0818557-.0003381.1595461-.0398924.1727661-.0394577.0132201-.0705119.1432474-.0690631.2889094.0014972.1456017-.0328412.2767156-.0762591.2912637-.0433697.0144877-.0549607.1379352-.0257417.274301.029219.1363054.0175797.2598132-.02579.2743613-.0433214.0144877-.077708.1456017-.0762591.2912637.0014972.1456017-.0296054.2755686-.0690631.2887887-.039506.0132201-.0615289.0717746-.048972.1302688.0450117.210072-.1516007.4683761-.4269836.5606147-.1544018.0516729-.2834.1473523-.2866359.2126678-.003429.0653759-.1718366.1997495-.3744377.2985679-.2025528.0989995-.3598524.2187647-.3497102.2660913.0101904.0475077-.1107907.1296048-.2688147.1825454-.1581206.0529406-.3273492.1813381-.3761764.2854082-.0488754.1040702-.1598593.2129696-.2465986.2420054-.0868842.0290962-.2362633.2243183-.3321305.4337867-.2317235.506829-.1266317,1.0828369.2295985,1.2581987.1325721.0654362.2490134.1561656.2587691.2016209.0253553.1182561.2924796.2944027.3945771.2602358.0474265-.0158761.1005037.0380303.118035.1198859.0175314.0817349.0707051.1357621.1181316.1198859.267559-.0896428.6775907.7056127.4568787.8861056-.0470885.0385132-.0669863.15689-.0441907.2632541.0227473.1062433-.007341.2369951-.0670346.2905997-.0595971.053665-.0855802.2043373-.0575686.3348476.0279633.1304499.0185939.2481023-.0209604.2613224-.0393128.0131597-.0704153.1432474-.0689665.2888491.0014006.145662-.0329378.2767156-.0762591.2912033-.0434663.0145481-.0594039.1175921-.0354974.2290268.0238581.111314-.009466.3247666-.0741341.474292-.0645715.1495254-.1164413.3801821-.1150407.5123826.0013523.1322609-.0298468.2512413-.0692562.2644614-.0395543.0132201-.0582448.0873489-.041631.1647375.0354492.1654619-.0859666.8716783-.1630951.9488858-.0293639.029398-.0345798.1402291-.0117842.2465328.0227473.106183-.0074859.2369951-.0670829.2905393-.0596937.0537253-.0903132.1821228-.0681937.2852875.0221195.1032251.0040569.1998099-.0402304.2146598-.0442873.0147896-.0624465.1107104-.0404719.2132111.0219263.1023196-.0025597.2598132-.0543328.3499993-.0518214.0901257-.0762591.2476798-.0543328.3499993.0219746.1023799.0129433.195705-.020236.2073556-.033131.0117109-.0886229.2455066-.1234442.5196265-.0348696.2741802-.091424.5078552-.125859.519385-.0342901.0114695-.0488271.0843306-.0322616.1615985.0354974.165643-.0858217.8717386-.1630468.9489461-.0292673.0293376-.0349179.1388407-.0125086.2433335.0224093.1045531.0085484.2009569-.0310059.2141769-.0394577.0132201-.0706085.1431267-.0690631.2888491.0014972.145662-.0328412.2766552-.0761626.2912033-.0435146.0145481-.0551056.1379352-.0258383.2743613.029219.1363657.0209121.2586663-.0185939.2718863-.0394577.0132201-.0705602.1432474-.0690631.2889094.0014489.1456017-.0328412.2767156-.0762591.2912637-.0434663.0145481-.055009.1379352-.02579.274301.0292673.1363054.0209121.2586663-.0185939.2719467-.0394577.0132201-.0705119.1432474-.0690631.2888491s-.0328412.2766552-.0762591.2912033c-.0433697.0145481-.0549607.1379956-.0257417.2743613.029219.1363054.0208155.2587267-.0185939.2719467-.0394577.0132201-.0705602.143187-.0691114.2887887.0014972.145662-.0328895.276776-.0762591.2912637-.0433697.0145481-.0560232.1332871-.0280599.2637974.0280116.1304499.0020767.2811223-.0575686.3347872-.0595971.0536046-.0889609.1880386-.0651994.2989301.0237616.1107707.0069546.2135129-.0372844.2283628-.0442873.0148499-.0576169.1337096-.0296054.2642199.0279633.1305103.002125.2811826-.0575686.3348476-.0596454.0535442-.0890092.1881594-.065296.2989301.0237616.1108311.0070512.2135129-.0372361.2283024-.044239.0148499-.0565544.1385993-.0273354.2749046.0292673.1363657.0209121.2586663-.0186422.2718863-.0394094.0132201-.0705602.1432474-.0690148.2888491.0014972.1457828-.0328895.276776-.0761626.2912637-.0435629.0145481-.0550573.1379956-.0258383.274301.029219.1364865.0209121.2587267-.0185939.2719467s-.0705602.1432474-.0691114.2889094c.0014972.145662-.0327929.276776-.0762108.291324-.0434663.0145481-.0597903.1156-.0364151.2247409.0595005.2773796-.154595.6894347-.401097.7720148-.054526.0182908-.1130123.0558985-.1650269.100086.1143646.8922629.0567959,1.8247292-.1708707,2.6769698.1515041-.0587357.1966124-.0360986.2182972.0649533.0190286.0888581.0023665.1725247-.0371395.1857447-.0393128.0131597-.0704636.143187-.0690148.2887887.0014489.145662-.0328895.276776-.0762591.2912637-.0434663.0145481-.0549607.138056-.0257417.2743613s.0168553.2599943-.0272872.2747839c-.044239.0148499-.0572306.1354602-.0288326.2678419.0283497.1323816.011591.3259135-.0371878.4299837-.0488271.1040098-.0690148.2815448-.0447702.3946095.0242445.1130043.0107217.2164708-.03004.2301738-.0407134.0136426-.0692562.1667296-.0633159.340039.0059887.1734302-.0225059.3263964-.0632676.340039s-.0501311.1364261-.0209121.2727315c.029219.1363657.0169518.2599943-.0273354.2747839-.0442873.0148499-.0609977.1176524-.0372361.2284835.0237616.1107707-.0056506.2453859-.0652477.2988697-.0596937.0537253-.0855802.204277-.0576169.3347872.0280116.1305103.0146819.2494304-.0295571.2642803-.0442873.0147896-.064813.1054586-.0457845.2013794s0,.2788887-.0422589.4063807c-.0422589.1277335-.0547192.3351494-.0277701.4610719.0269974.1259225.016807.2398323-.0226508.2530523s-.0705602.1431267-.0690631.2887887c.0014006.145662-.0329378.276776-.0762591.2912637-.0433697.0145481-.055009.1379352-.02579.2743613.029219.1363054.0208638.2586663-.0186422.2719467-.0393128.0131597-.0704636.1430663-.0690148.2888491.0014489.1456017-.0328895.2766552-.0762591.291143-.0434663.0146085-.055009.138056-.02579.2743613.0292673.1363657.0209121.258787-.0186422.2720071-.0394094.0132201-.0705602.143187-.0690148.2887887.0014489.1456017-.0328895.2767156-.0762108.2912637-.0434663.0145481-.055009.1379956-.02579.2743613.0095143.0444894-.0003381.0650137.0000483.0997842.0273837.0680923.0570857.1345548.0820063.2042166.2165586.1948599.4092107.4176691.5822547.6611233.1644957-.2098306.3473437-.3994991.5482545-.5668927-.0168553-.1156604-.008162-.2171348.0307162-.2301134.0442873-.0148499.0565544-.1384785.0273354-.2748443-.0330827-.1542943-.0075824-.2631937.0674693-.2883058.0751483-.0251724.1006485-.1340718.0675659-.2883661-.029219-.1363054-.0169518-.2599943.0273354-.2747839.044239-.0148499.0565544-.1385993.0272872-.2749046-.0330344-.1542943-.0074859-.2631937.0675659-.2883661.0750517-.0251121.1006002-.1340115.0675176-.2882454-.029219-.1364865-.0170001-.2600547.0272872-.2749046.0442873-.0147896.0575686-.13377.0296054-.2642803-.0279633-.1304499-.002125-.2811223.0575686-.3347872.0595971-.0536046.0890092-.188099.0652477-.2989905-.0237133-.1107707-.0070029-.2133921.0372844-.2282421.044239-.0147896.0575686-.13377.0296054-.2642803-.0280116-.1305103-.0020767-.281243.0575686-.3348476.0595971-.0535442.0890092-.1881594.0652477-.2989301-.0237616-.1108311-.0069063-.2135129.0372844-.2283628.0441907-.0147896.0565061-.1385389.0272872-.2749046-.029219-.1363054-.0209121-.2587267.0185939-.2719467.0394577-.0132201.0705602-.1431267.0690631-.2888491-.0014489-.145662.0328412-.2766552.0762591-.2912033.0434663-.0145481.055009-.1379352.0257417-.2743613-.029219-.1363657-.0209121-.2587267.0185939-.2719467s.0705602-.1431267.0691114-.2888491c-.0014972-.1456017.0328412-.2767156.0762591-.2912637.0433697-.0144877.0549607-.1379956.0257417-.2743613-.029219-.1363054-.0169518-.2599943.0273354-.2747839.044239-.0148499.066117-.0938684.0485856-.1757241-.0175314-.0817953.022361-.1669107.0887678-.1891252.0750517-.0251724.1006002-.1340718.0675659-.2883661-.029219-.1363054-.0208638-.2586663.0186422-.2718863.0393128-.0132201.0704636-.1432474.0690631-.2889094-.0014972-.1456017.0328412-.2767156.0761626-.2912033.0434663-.0145481.055009-.1379956.02579-.274301-.029219-.1363657-.0208638-.258787.0186422-.2720071.0394577-.0131597.0705602-.1432474.0690631-.2888491s.0328895-.2766552.0762108-.2912033c.0434663-.0145481.0591141-.1188597.0348696-.2318036-.0241962-.1130043-.0046364-.2893924.0434663-.391893.048151-.102561.103981-.2491889.124072-.3262153.0640886-.2450237.461177-.6540002.7188354-.7403229.136967-.0458778.2394991-.1279749.2278115-.1826057-.0116876-.0545101.1079895-.1424023.2660618-.1953429s.327301-.1813984.3761764-.2854082c.0488271-.1040702.2129364-.2307171.3645853-.2814845.1516973-.0508278.266255-.1370298.2545674-.1916002-.0116876-.0545101.1166828-.1453602.2852353-.201802.1685042-.0564418.3626052-.1916606.4314268-.3004996.0686284-.1088994.242252-.2387457.3857389-.2886076.1434387-.050043.251235-.1353999.2395474-.18991-.0117359-.0545704.1209328-.146809.2948461-.2050617.1737202-.0581924.3559887-.1909362.4047675-.2950063.0488754-.1040702.2000414-.2263707.3359459-.2718863s.2375673-.1273713.2258797-.1818813c-.0116876-.0546308.0803643-.1332267.2046778-.1748789.1243618-.0416522.2821926-.1648583.3509176-.2735766.0687733-.1089598.2242859-.2327695.3455568-.2751461.1212709-.0425577.2110046-.1219987.199317-.1764484-.0116876-.0545101.0847592-.1346151.2143853-.1780179.1295778-.0434028.2755761-.1641339.3243549-.2682041.0489237-.1040098.1637712-.2142976.255485-.2449633.0916655-.0307261.1583138-.0945928.1481234-.1422816-.0102387-.0476284.1201601-.1635302.2896785-.2576401.1695667-.094291.2987581-.2153238.2872154-.2692303-.011591-.0539064.1056713-.1404706.2605561-.1923246.1549331-.0519144.273113-.1341322.2626811-.1827265-.0104319-.0486546.0655375-.1467486.168794-.2180403.1033531-.0712313.1784532-.1733698.167007-.2267933-.0114944-.0535442.0695943-.1276731.1801918-.1647375.1106941-.0370644.1916379-.1119781.1799503-.1664881-.0117359-.0545704.0666966-.1286389.1741548-.1646168.1073617-.0359779.2352491-.1504913.2841245-.2546218.0488271-.1039494.1638195-.2142373.2555333-.2449633.0916172-.0306657.1580723-.0954983.1476404-.1442736-.0103836-.0484735.0655375-.1466882.1688423-.2178592.1033048-.0712917.1784049-.1734905.1669587-.2268537-.0114944-.0536046.0696426-.1276731.1802401-.1646772.1106458-.0370644.1926521-.1071488.1822202-.1558638-.0104319-.0485339.0655375-.1466882.168794-.2178592.1033048-.0714124.1784532-.1734302.1669587-.2269744-.0114461-.0534839.0696909-.127492.1803367-.1645564.1105975-.0370644.1925555-.1071488.1821236-.1558638-.0103836-.0485339.0655858-.1466882.1688906-.2179196.1032565-.0713521.1783566-.1733698.1669104-.226914-.0114944-.0534839.0532703-.1220591.1439216-.152423.090603-.0303639.2247206-.1948599.2979854-.3655133.0733614-.1706534.1950186-.3310446.2706016-.3563377.0755347-.0252932.1757969-.1185579.2229336-.2074763.1894163-.3577261.2750448-.4907114.3270595-.5080967.0299917-.010081.1144129-.1579162.1877743-.3286299.0733131-.1706534.1728508-.3236196.2213399-.3398579.0485373-.0162383.1481717-.1691442.2214365-.3397976.0733614-.1707137.1587484-.3189111.1901407-.3294147.0312474-.0105036.0952877-.0917556.1424245-.1806137.2031806-.3834418.2774596-.4914358.3564716-.5178759.0460742-.0154536.0736029-.0758191.061046-.1343133-.0283497-.1322609.1194839-.4576311.223803-.4925827.0426935-.0142463.0763074-.1450584.0748103-.2907204-.0014489-.1457224.0329378-.2767156.0762591-.2912637.043418-.0144877.0646198-.0933855.0470402-.1751808-.0175314-.0818557.0042983-.1608138.0485373-.1756637.044239-.0147896.0702222-.0748533.0577135-.1331664-.0125086-.0584338.0092245-.1837527.048151-.2782851.187726-.4547939.2034221-.559347.1332965-.8864678-.0413895-.1931697-.039023-.3633401.005216-.37819.044722-.0149707.0237133-.2913844-.0471367-.6219461-.07085-.3305013-.16324-.5830103-.2080102-.5680396-.0441907.0147896-.1050435-.0878318-.1350835-.2280006-.0300883-.1402895-.1132055-.3021295-.1849248-.3595975-.3091417-.2481627-.3960742-.3392543-.4168897-.4365031-.0122188-.0568643-.0559749-.0920574-.0972195-.0782337-.0412929.0138237-.1187595-.0595204-.1722713-.1630473-.1076031-.2085629-1.6687181-1.3460306-1.7910032-1.3051028-.0425003.0142463-.3022837-.1379352-.5774251-.3379866-.2749966-.2002325-.5232855-.356217-.5517318-.3466792-.0655375.0219127-.2498827-.0802862-.7466055-.4142886-.2176694-.1462053-.4162619-.2590285-.4411826-.250698-.0500345.0167816-.4388644-.2271555-1.0182213-.6389088-.5111149-.363159-.6385194-.478095-.6645991-.5999126-.0122188-.0568643-.0583897-.0910916-.1026287-.076302-.0442873.0148499-.1099696-.1108915-.1460949-.2795528-.0962053-.4487574.1181799-.7661593.6382296-.9445395.2318684-.0796221.4134607-.1829076.4034635-.2295701-.0099972-.0466022.2278598-.195041.5285497-.3298976.3006416-.1346755.6083828-.3163757.6837726-.4037247.0754864-.0873489.4292052-.2567346.7860632-.3762584.3569546-.1195237.640741-.255648.6307438-.3024313-.0100938-.046904.278667-.2095891.6416586-.3615895.3629916-.1520608.7250655-.3517499.8046571-.4438074.0794467-.0922385.4184352-.2593303.7532703-.3714895.3347385-.1120988.6005106-.2420658.590465-.2887283-.0100455-.0468437.2741272-.2100117.6314199-.3625554.357341-.1526644.6524286-.329958.6556644-.3942473.0035256-.0694807.2472264-.1974556.6026839-.3164965.3282669-.109986.5885332-.2382024.5784394-.2851064-.0100455-.046904.180385-.1796478.4233131-.2951271.2428798-.1153585.469822-.2697736.504112-.343178.0344832-.0733441.2365048-.1915398.4489099-.2626504.2123568-.071171.3765144-.1739735.3648268-.2285439s.1028702-.1407121.2547123-.1916002c.1516007-.0507674.3157582-.1774143.3645371-.2814845.0530288-.1129439.2368911-.238806.4566855-.3123916.2022147-.0677301.3588864-.1641942.3481165-.2144184-.01077-.0501638.0827308-.1570107.207817-.2374176.1250379-.0804069.2185387-.1873142.2077687-.237478-.01077-.0502241.1071202-.1337096.262005-.185624.1549331-.051854.2721954-.1379956.2607493-.1915398-.0114944-.0534839.0637022-.155562.1669587-.2267933s.1792742-.1693857.1688423-.2180403c-.0104319-.048715.0534635-.1127024.1419415-.1423419.0885263-.0296395.1513109-.0985165.1396233-.1530266-.0116876-.0546308.033131-.117411.0994411-.1396255.0663585-.0222145.1063475-.1073903.0888161-.1891856-.0198496-.09248.0440941-.1741546.1692769-.2161086.1105975-.0370041.1908652-.1151171.1783083-.1736113-.0294122-.1372109.1211743-.458114.2325928-.4954199.0473782-.0158761.0752932-.0795618.0620602-.1413761-.0000483-.0001207.076887-.1903325.1277425-.4097612.0847109-.3654529.2105216-1.7785496-.190672-2.3976585ZM18.4987739,22.1930064c.0927763-.0310882.1786463.0097792.1966124.0935666.0175314.0818557.0862081.1305706.1525666.1083561.0664068-.0222749.1302539.0041652.1419415.0587357.0116876.0545101.0751483.0811313.1409756.0590979.0657789-.0220334.3493239.1221798.6302125.3203599.2809369.19818.5309162.3535609.5555954.3452908.0617704-.0207054.332372.1767503.3490824.2546822.0074859.0347705.1631434.1654619.3459432.2902375.4068442.2779229.7637022.9998343.7240996,1.46483-.0141507.1654619.0024148.4317946.0367531.591884.0342901.1599687.0354009.3006203.0022699.3123313-.033131.0117713-.0911343.2226281-.1290465.4683761-.0379122.2458084-.099248.4572085-.1364841.4696438-.0370912.0124353-.0531737.0895221-.035594.1713777.0175314.0817953-.022361.1669107-.0888161.1891252-.0663102.0222145-.1104526.088194-.097944.1465675.0248241.1157207-.1144612.4560012-.198013.4839505-.0835518.0280096-.222837.3682901-.1980613.4839505.0125086.0584942-.0149717.1188597-.061046.1343133-.079012.0264401-.153291.134434-.3564716.5178155-.0470885.0890392-.1243618.1745771-.1717883.1905136-.0474265.0158761-.077708.0686356-.0672761.1172902.0104319.0485339-.0655375.1466882-.168794.2180403-.1033048.0712313-.1784532.1733094-.1669587.2267933.0114461.0535442-.0334207.1154189-.0998758.1376938-.0663102.0222145-.1112736.0842099-.0998275.1376334.0114944.0535442-.0636539.155562-.1669104.2268537-.1033048.0712313-.1792742.169446-.1688423.2179799.0104319.048715-.0534635.1127628-.1419415.1424023s-.1523734.0935666-.1419415.1423419c.0104319.0485943-.0655375.1467486-.1688423.2180403-.1033048.071171-.1784049.1733094-.1669587.2267329.0114944.0535442-.0696909.1276127-.1802884.1646772-.1105975.0370041-.1926521.1070281-.1822202.1558034.0104319.0485943-.0655375.1467486-.168794.2180403-.1033048.0712313-.1784532.1733094-.1669587.2267329.0114461.0535442-.0696426.1276127-.1802884.1646168-.1106458.0370644-.1923141.1084769-.1815441.1587613.0107217.0501638-.0827308.1570107-.207817.2374176-.1250862.0803465-.2185387.1872539-.207817.2373573.01077.0502845-.055347.1165055-.1470126.1471712-.0917138.0307261-.2066096.1409535-.2555333.2449633-.0487305.1041305-.1766662.2185836-.2840762.2545614-.1075549.0360382-.1858907.1101067-.1742031.1646168.0117359.0546308-.0692079.1295444-.1798537.1665485-.1106458.0370644-.191976.1100464-.1808197.1621418.0111563.0520351-.1001173.166307-.2473713.2540182-.1472057.0877111-.2591072.1991459-.2487236.247559s-.087174.1236286-.2167518.1670314c-.1295778.0433425-.2755761.1640735-.3244032.268023-.0487788.1040702-.1999931.2264311-.3359459.2719467s-.2374707.1273713-.2257831.1819417c.0116876.0545101-.0598868.1278542-.1590865.1629869-.099248.035012-.2366496.1527852-.305278.2616846-.0688216.1087183-.2085898.2257671-.3107355.2599943-.1022423.0342273-.1762315.1069677-.1645439.1614174.0116876.0545704-.0960121.1399273-.2395474.1899703-.1435353.0498016-.3171105.1797685-.3857389.2886076-.0687733.1087787-.2447151.2379609-.3911481.2869777-.146433.0490772-.2566441.1338304-.2450048.1882801.0117359.0545704-.0692079.1294841-.179902.1665485-.1608735.0539064-.211729.0178078-.2542293-.1805533-.029219-.1363054-.0170001-.2599943.0272872-.2747839.0442873-.0148499.061046-.1175921.0372844-.2283628-.0237616-.1108311.005554-.2453255.0652477-.2989905.0595971-.0536046.0855802-.204277.0575686-.3347872-.0279633-.1305103-.0185939-.2481023.0209604-.2613827.0393128-.0131597.0704636-.1430663.0690148-.2888491-.0014972-.1456017.0328895-.2766552.0762108-.2912033.0434663-.0145481.0550573-.1378749.02579-.2743613-.029219-.1363054-.0209121-.2586663.0186422-.2718863.0394577-.0132201.0705602-.1432474.0690631-.2888491s.0328412-.2767156.0762108-.2912637c.0434663-.0145481.055009-.1379956.02579-.274301s-.0209121-.2587267.0185939-.2719467c.0394577-.0132201.0705602-.1432474.0690631-.2888491-.0014489-.145662.0328412-.2766552.0762591-.2912033.0434663-.0145481.0549607-.138056.0257417-.2743613-.029219-.1363657-.0209121-.2587267.0185939-.2719467.0394577-.0132201.0705602-.143187.0691114-.2888491-.0014972-.1456017.0327929-.2767156.0762591-.2912637.043418-.0145481.0645233-.0933251.0469919-.1751204s.0042983-.1608741.0485856-.1757241.0565544-.1385389.0273354-.2749046c-.0292673-.1363054-.0177246-.2596925.0257417-.2742406.043418-.0145481.077708-.145662.0762591-.2912637-.0014972-.145662.0296054-.2756894.0690631-.2889094.039506-.0132201.0478129-.135581.0185939-.2718863-.029219-.1364261-.0176763-.2598132.0257417-.2743613s.0777563-.1455413.0762591-.2912033c-.0014489-.1457224.0296054-.275629.0691114-.2888491s.0523044-.1146945.0285428-.2255256.005554-.2453859.0652477-.2989301c.0595971-.0536046.0855802-.204277.0575686-.3348476-.0279633-.1305103-.0145853-.24937.0295571-.2641596.044239-.0147896.061046-.1175921.0372844-.2284232s.0056506-.2453255.065296-.2989301c.0595971-.053665.0855319-.2043373.0575686-.3348476-.0279633-.1304499-.0188354-.248042.0201394-.2610809.0391196-.0130993.0782876-.109986.0870774-.2150824.0298468-.3594164.1121913-.70187.1736236-.7224547.0337588-.0113487.0374776-.1320798.0082103-.2685059-.029219-.1363054-.0175797-.2598132.02579-.2743613.0433697-.0144877.0777563-.1456017.0762591-.2912033-.0014489-.1456017.0296054-.275629.0691114-.2888491.0394094-.0132201.0581482-.0873489.0415827-.1647375-.0379605-.1769917.1001173-.8376925.1808679-.8657021.0331792-.0114091.0373327-.1275524.0093694-.258123-.0280116-.1305103-.002125-.2811223.0575686-.3347872.0595971-.0535442.0890092-.1880386.0652477-.2989905-.0237616-.1107104-.0161791-.2107964.0169518-.2223866.033131-.011892.0886229-.2456273.1234442-.5196265.0349662-.2742406.0915206-.5079759.1258107-.5195058.0344349-.0115298.0433214-.1101671.0199462-.2192476-.0233752-.1091409-.010287-.2091062.029219-.2223262.0394577-.0132201.0706085-.1433078.0690631-.2889094-.0025114-.2440578.1319443-.4259392.1730923-.2340372.0098524.0458778.171402.1232664.358983.1719814.3257072.0845721.391631.1120988.7281082.3043026.0807507.0461193.1844901.0710502.2305644.055657.0461225-.0154536.0934042.0165402.1050918.0710502.0117359.0546308.1117566.0688771.2224024.031873.1251828-.041954.2131779-.011228.2330275.0813727.0175314.0817349.0878018.1300274.156382.1070281.0684835-.0229389.2323513.0417126.3640541.1437303.1318477.1019574.3037326.1640131.3820684.1378145.0782876-.026259.2502208.0357968.3820201.1377541.1317028.1020177.3136332.1606327.4042845.1302688ZM31.595883,6.0091888c-.0473782.0158761-.0718159.0957397-.0542362.1775954.0198013.09248-.0440941.1742149-.1692769.2161086-.1105975.0370644-.1915413.1120384-.1798537.1665485.0116876.0545704-.0667449.1286389-.1741548.1646168s-.2352974.1504913-.2841728.2546218c-.0488271.1039494-.2180557.2324677-.3761764.2854082-.1579757.0528802-.2790051.1349773-.2688147.182485.0101421.0473869-.1471574.1671522-.3497102.2660913-.2026011.0988787-.3709121.2332524-.3743894.2986283-.0034773.0683338-.2078653.1863484-.4820408.2781644-.2618601.0877111-.4673106.2002928-.4565889.2502151.0106734.0498619-.2453429.2129696-.5690217.3623743-.3236788.1495254-.5800331.3111843-.5697461.3592353.0103353.0482321-.3070167.1967313-.7053125.3300787-.3981993.1334078-.7153581.2834765-.7046364.3333988.0106734.0498619-.3719263.2559498-.850345.4578122-.478467.2019227-.8615013.4060186-.8513109.4535866.0101904.0474473-.3768042.2187647-.859811.3805443-.4830551.1617796-.8813026.3399787-.8851663.3960582-.0038154.0559588-.4074721.2696528-.8970471.4748956-.4894784.2051824-.8818822.4115118-.8718849.4580536.0100455.0468437-.3950117.2235939-.9002829.3927985-.5051746.1692046-.9214848.3536816-.9253001.4101234-.0037188.056321-.3711536.2580626-.8165379.448033-.445336.1901514-.8015662.3839851-.7915689.4307081.0099972.0466022-.2713744.1818813-.6254312.3004392-.3884918.1300877-.6522837.1751204-.6655168.1133665-.0121223-.0563814.0269008-.1462053.0864979-.1998099.0596937-.053665.0903615-.1820021.0681937-.2852271-.0221195-.1032854-.0080171-.1984819.0315372-.2117623.0394577-.0132201.0705119-.143187.0690631-.2888491-.0014972-.1456017.0328412-.2767156.0762591-.2912637s.0645233-.0933251.0469919-.1751808c-.0175314-.0817349.0042983-.1608741.0485856-.1756637.0442873-.0148499.0575686-.1337096.0296054-.2642199-.0279633-.1305706-.0020767-.281243.0575686-.3348476.0595971-.0535442.0890092-.1880386.0651994-.2989905-.0237133-.11065-.0108183-.2121245.0285911-.2253445.0394577-.0132201.0705602-.1432474.0690631-.2888491-.0014006-.145662.0329378-.276776.0762591-.2912637.043418-.0145481.0594039-.1175921.0355457-.2289665-.0239064-.1113744.0094177-.3247666.0740858-.4744127.0646681-.1494651.1164413-.3801821.115089-.5123223-.0014006-.1323212.0298468-.251181.0693045-.264401.039506-.0132804.0523044-.1146945.0285428-.225586-.0237616-.1107707.0056506-.2453255.0652477-.2988697.0595971-.053665.0903615-.1820021.0681937-.2852875-.0221195-.1031647-.0131848-.1972746.0198496-.2089855.0330827-.0117713.0911343-.2225677.1290465-.4683158.0380088-.2458688.0993446-.4572689.1364841-.4697042.0370912-.0124353.0445771-.1294237.0166138-.259934s-.0020284-.2811223.0575686-.3347872c.059742-.0535442.0890575-.188099.065296-.2988697-.0237616-.1108311-.0070029-.2136336.0372844-.2284835.044239-.0148499.066117-.0937477.0485856-.1757241-.0261281-.1217573.1073134-.1953429.7376708-.4064411.4233131-.1417986.8472057-.235667.9419139-.208744.094853.0269834.7238099-.1044324,1.3976335-.2919881.6739202-.1876161,1.2334276-.3034575,1.24328-.257459.0099006.0459985.4548503-.0625991.9887126-.2414018.5339106-.1788631,1.0525114-.3019484,1.1523389-.2733351.0998758.0284322.5659307-.0487753,1.0355595-.1715588.4695805-.122542.861936-.1850204.8718849-.1386596.0099006.0463004.2670277.0007244.5713882-.1011726.3098662-.1038287.6943977-.162504.8741065-.1333475.1763281.0286736.4846971-.0028975.6852698-.0700844.2006209-.0671868.3742445-.0773886.3859321-.0229389.0116876.0545101.1935215.0429803.4040913-.025595.2104733-.0687563.4671657-.0830026.5701808-.0315712.1030633.05119.3072099.0530613.4535946.0040445.146433-.0490168.2758659-.0444894.2875535.0101414.0116876.0544497.1117566.0688167.2223541.0317523s.2105216-.0237237.222016.0298809c.0114461.0534235.1173589.094955.2352974.0921178.1179385-.0028975.2229819.0345894.2334138.0832441s.0732648.0703258.1396716.0481113c.0663585-.0222145.1349869.0263797.1525666.1082958.0175314.0817349.0680488.1366676.1123361.1218176.0441907-.0147896.1241686.1769917.1775838.426241.0936939.4369861.0293156.7798019-.1581689.8425821Z" fill="#191919" stroke-width="0"/>
  <text transform="translate(36.5292761 40.5776994) scale(.8000566 1)" fill="#000" font-family="HighTowerText-Reg, &apos;High Tower Text&apos;" font-size="47.4733887" isolation="isolate"><tspan x="0" y="0">BOTTIGO</tspan></text>
  <path d="M18.7021306,72.9234249" fill="#191919" stroke-width="0"/>
  <path d="M-8.4893596,51.4553387" fill="#191919" stroke-width="0"/>
  <path d="M25.851064,74.2851269" fill="#191919" stroke-width="0"/>
</svg>