<?xml version="1.0" encoding="UTF-8"?>
<svg id="_Слой_1" data-name=" Слой 1" xmlns="http://www.w3.org/2000/svg" baseProfile="tiny" version="1.2" viewBox="0 0 156.3829787 33.4368142">
  <path d="M155.6114933,5.552232c-.02607,0-.063411-.0922125-.082862-.2049472-.019451-.1127003-.0588214-.2049472-.0869521-.2049472s-.0511722-.08264-.0511722-.1835985c0-.1206544-.0465514-.2301524-.1345337-.3193692-.0741512-.0745482-.1350333-.1644192-.1350333-.1997478s-.0603513-.125234-.1345337-.1998166c-.0741824-.0747203-.1345337-.1656588-.1345337-.2021925,0-.0365682-.0250709-.0665252-.0562613-.0665252-.052702,0-.1135841-.0457619-.2915782-.2195814-.041431-.0402181-.1012828-.0732053-.1330039-.0732053s-.0577911-.0263415-.0577911-.0585711c0-.0321607-.033251-.0585711-.0741824-.0585711-.0404007,0-.1043425-.0394606-.1411839-.0878394-.0368415-.0482755-.1125538-.0878394-.1677847-.0878394-.0557617,0-.1012828-.0229326-.1012828-.0510302s-.0966932-.067937-.2153664-.0885281c-.1186732-.02066-.2153352-.0634606-.2153352-.0953459,0-.093762-1.3463677-.0626342-1.5075023.0348121-.0741824.0446945-.1892652.0816415-.2557671.0821579-.0670015.0004477-.1212334.0271679-.1212334.0593975,0,.0321952-.0608821.0585367-.1345337.0585367-.0838924,0-.1350333.0332282-.1350333.0878394,0,.0501005-.0481124.0878394-.1120542.0878394-.1304125,0-.9647465.8902394-.9647465,1.0289713,0,.0829499-.0347808.1423818-.2020348.3450564-.0368415.0449011-.0670327.1493718-.0670327.2322528,0,.0828122-.02198.150577-.0491115.150577-.0266008,0-.0654716.1317075-.0854222.2927866-.0204501.1610103-.059321.2927866-.0859218.2927866-.0271315,0-.048612.1976473-.048612.4391972,0,.2415843.0209809.4391972.0465514.4391972.0261012,0,.0634422.1581523.0833928.3513577.0204501.1932743.0598517.3513577.0879824.3513577s.0511409.0790934.0511409.1756789c0,.0966544.0235411.1756789.052702.1756789s.0680318.0659054.0864525.1464105c.0189203.0805396.0557617.1463761.0818317.1463761.0266008,0,.0480812.0282698.0480812.0627375,0,.0345366.0301913.0995123.0675323.1444478.1596047.1937908.2015352.2600061.2015352.3174409,0,.0335725.0261012.0609814.0578223.0609814.074682,0,.2117759.148993.2117759.230118,0,.0344678.0485808.0626687.1074022.0626687.0593522,0,.107933.0264104.107933.05864,0,.0321607.0337817.0585367.074682.0585367.041431,0,.0890127.039495.1064031.0878394.0168909.04831.0798023.0878394.1401536.0878394.0603825,0,.109494.0263415.109494.0585711,0,.0321607.0542006.0593631.1212334.0604305.0665019.0009641.1682843.0404936.2255758.0878394.0572916.0472081.1969457.08598.3094682.08598.1130533,0,.2051257.0263415.2051257.0585367,0,.0344333.1887656.0585711.4578331.0585711s.4578331-.0241378.4578331-.0585711c0-.0321952.1104931-.0585367.246026-.0585367.146835,0,.2788086-.0353975.3268898-.0878394.0444907-.0483788.1396541-.0878394.2112451-.0878394.0721218,0,.1309745-.0264104.1309745-.0585711,0-.0322296.0363107-.0585711.0808014-.0585711.044522,0,.0808326-.0245854.0808326-.0546457,0-.0300259.0496111-.0718279.1104931-.0928323.1299129-.0448322.8046423-.7527816.8046423-.8442021,0-.0342956.0240406-.0624276.0532016-.0624276.0286302,0,.0680318-.0658365.0864525-.1464105.0184207-.0805051.055231-.1464105.0818317-.1464105.0261012,0,.0480812-.0658365.0480812-.1463761,0-.0805051.0230415-.1464105.0511722-.1464105s.067501-.0922469.0869521-.2049472c.019451-.1127347.056792-.2049472.082862-.2049472.0266008,0,.0480812-.3821067.0480812-.849126s-.0214804-.849126-.0480812-.849126ZM155.0672389,7.0748052c-.0296917,0-.0537323.0608437-.0537323.1352197,0,.0743416-.0358111.1863188-.0792716.2488497-.0434916.0624965-.0798023.1597707-.0808326.2161725-.0004995.0563674-.0255705.1024392-.055231.1024392-.0296917,0-.0537323.0395639-.0537323.0878394,0,.0483788-.0368102.0878394-.0808014.0878394-.044522,0-.0808326.0294749-.0808326.0655266,0,.0851192-.4000107.5200811-.4782832.5200811-.033251,0-.0603513.0395639-.0603513.0878394,0,.048792-.0475817.0878394-.1074334.0878394-.0593522,0-.107933.0264104-.107933.0585711,0,.0321952-.0465514.0585367-.1038429.0585367s-.1401536.0395639-.1846756.0878394c-.0480812.0525453-.1800548.0878394-.3268586.0878394-.1355641,0-.2460572.0264104-.2460572.05864,0,.0321607-.1212334.0585367-.2690675.0585367-.1483337,0-.269567-.0263759-.269567-.0585367,0-.0322296-.119204-.05864-.265477-.05864-.1636947,0-.296199-.0334348-.3458101-.0878394-.0444907-.0482755-.1309433-.0878394-.1923249-.0878394s-.1115234-.0263415-.1115234-.0585367c0-.0321607-.0363107-.0585711-.0808326-.0585711-.0444907,0-.0808014-.0245854-.0808014-.0546113,0-.0300603-.0532016-.0729987-.1187044-.0955525-.1386238-.0478623-.258296-.1662097-.258296-.2555642,0-.0344678-.0363419-.0627375-.0808326-.0627375-.044522,0-.0808326-.039495-.0808326-.0878394,0-.04831-.0240406-.0878394-.0537011-.0878394s-.0537011-.0407346-.0537011-.090663c0-.049825-.0608821-.1516444-.1345337-.226227-.0869833-.0876673-.1350645-.1990247-.1350645-.3144796,0-.0982727-.0271003-.1885914-.0603513-.2007119s-.0726526-.1592197-.0874828-.3269445c-.0148302-.1677592-.0480812-.304976-.0741512-.304976-.0256017,0-.0470821-.0922125-.0470821-.2049472s.0209809-.2049472.0465514-.2049472c.0250709,0,.0603513-.1510935.0782725-.3357939.0173904-.1847004.056792-.3449876.0879824-.3562128.0311903-.0112941.0562613-.0973086.0562613-.1912427s.0189203-.1708238.0419618-.1708238c.0230103,0,.0869521-.0922469.1432133-.2049472.0557617-.1127347.1217641-.2049816.1468038-.2049816.0245714,0,.0450215-.0395295.0450215-.0878394,0-.0483444.0261012-.0878394.0578223-.0878394.074682,0,.2117759-.148993.2117759-.230118,0-.0344678.0250397-.0626687.0557305-.0626687.0312216,0,.109494-.053716.1739354-.1194492.0649721-.0656644.1729051-.1343589.2404061-.1527118.0670327-.0183185.1222637-.0568494.1222637-.0855668s.0844231-.0522354.1882661-.0522354.1882348-.0243788.1882348-.0542669c0-.0831565.1442437-.107191.6864686-.1145941.2966986-.0040631.4982338.0166313.4982338.0510646,0,.0318508.0971927.0746859.2153664.0953459.1186732.0205911.2153664.0603961.2153664.0884937,0,.0281665.0490803.0510646.1094628.0510646.0603513,0,.1232628.0395639.1401536.0879083.0173904.0482755.0772422.0878394.1330039.0878394.0562613,0,.1023131.0263415.1023131.0585367,0,.0321607.0363107.0585711.0808014.0585711.0439912,0,.0803331.039495.0803331.0878394,0,.0482755.02607.0878394.0577911.0878394.074682,0,.2117759.1489242.2117759.2300491,0,.0344678.0235411.0627375.0526708.0627375.0291609,0,.068063.0658365.0864525.1464105.0189515.0805051.0557617.1464105.081863.1464105.0266008,0,.0480812.0658365.0480812.1463761,0,.0911106.0306908.1464105.0808326.1464105.0562613,0,.0808014.0618078.0808014.2049472,0,.1127347.0240406.2049472.0537323.2049472.0327202,0,.0537011.2635183.0537011.6734472s-.0209809.6734472-.0537011.6734472Z" fill="#191919" stroke-width="0"/>
  <path d="M154.1116715,7.9731365c-.037341-.016287-.067501-.0670073-.067501-.1126314,0-.0457275-.0189515-.0830188-.0414622-.0830188-.0230103,0-.0874516-.0922125-.1432133-.2049472-.0557617-.1127003-.1217329-.2049472-.1468038-.2049472s-.045521-.0659054-.045521-.1464105c0-.0911106-.0301913-.1463761-.0808326-.1463761-.0439912,0-.0808326-.0275467-.0808326-.0612225,0-.0336414-.0603513-.1270934-.1345337-.2075986-.1611345-.1755756-.1739041-.3167867-.0286302-.3167867.1401536,0,.4327622-.3156504.4327622-.4665028,0-.0654922.0266008-.1191049.059321-.1191049.0603513,0,.0434916-.3254639-.0363107-.6734127-.0424613-.1879371-.2087162-.3806261-.3273894-.3806261-.0399012,0-.0726214-.0263759-.0726214-.0585711,0-.0370158-.3770004-.0585711-1.0240987-.0585711h-1.0235992l.0143307,1.683549.0143307,1.6836179.1263537.0195237c.0695617.0107088.1841448.0037877.2542372-.0152884.1242931-.0339513.1278835-.052683.1427138-.7515075l.0148302-.7166954.3192093.0019627c.2015352.0012396.3273582.0282698.3411893.0732397.0117393.0391507.045521.0711737.0751815.0711737.070592,0,.2066556.1512656.2066556.2300835,0,.0345022.0245714.0627375.0542319.0627375.0291609,0,.0537011.0395295.0537011.0878394,0,.0482755.0363419.0878394.0808326.0878394s.0808326.0520632.0808326.1171078c0,.0644248.0240406.1171078.0537011.1171078s.0537011.0395639.0537011.0878394c0,.0483444.0225108.0878394.0501418.0878394s.0665019.0555065.0864525.1233746c.0700612.2400692.2005049.3451597.4271111.3442645.2322573-.001033.4332929-.1010963.3115288-.1548811ZM152.9540694,6.0783734c-.0818317.0005165-.1483337.0272712-.1483337.0594664,0,.034089-.1774946.0585711-.4250817.0585711-.3376301,0-.4317319-.0189728-.4578331-.0926601-.0465514-.1322929-.0404007-.8748133.0081801-.9272897.0220112-.0242066.2823679-.0351564.5785669-.0244132.5181844.0187662.5452847.0263759.713569.2015727.2010357.2090792.2097465.2603849.081863.4788299-.1217641.2085283-.1739354.2448554-.3509304.2459229Z" fill="#191919" stroke-width="0"/>
  <path d="M24.5326495,5.3472313c-.0528269-.0719312-.0980982-.1169012-.0980982-.11697-.0294732-.1213086-.1804919-.240448-.2709096-.2137277-.0306284.009056-.0650033-.0216586-.0763367-.0683502-.0113334-.0466572-.0556993-.0745137-.0986289-.0618078-.0428984.0126715-.0827996.0034089-.088638-.02066-.0058384-.024-.1041552-.067386-.218551-.0964478-.1143646-.0290617-.2131497-.0743071-.2195189-.1005109s-.0600391-.0333315-.1192976-.0158393c-.0592898.0175266-.1521739.0040976-.2064058-.029957-.0542006-.0339857-.155421-.0450044-.2249202-.0244477-.0694368.0205223-.1325043.0118795-.14006-.0192482-.0075556-.0310933-.0666268-.0417332-.131193-.0237934-.0645662.0180431-.1719684.0088838-.2386265-.020419-.0666268-.0292683-.175153-.0372569-.2411866-.0177332-.0660648.0195237-.1254795.0133601-.1320672-.0137045-.0065565-.0270302-.1256044-.0301292-.2646028-.0067834-.1389984.0233802-.268006.0169756-.2868326-.0140832-.0187329-.0310589-.1374373-.0259627-.263791.011363-.1263849.0373602-.2351296.0457275-.2417174.0186629-.0065565-.027099-.1320985-.0317131-.2789335-.0102611-.1467726.0214175-.2869887.0183874-.3114976-.0067489-.0245089-.0250675-.1601667-.0115007-.3015379.0302669s-.2624173.0536471-.2690363.0264104c-.006619-.0272712-.1483649-.0222095-.3149632.0113286-.1665983.0334348-.3190532.0341579-.3387228.0015839-.0226669-.0375323-.1768077-.0175266-.4215224.0548179-.2121506.0626687-.3912063.0914549-.3978877.0639771-.0066814-.0274434-.1685965-.022726-.3597974.0105366-.1911697.0333315-.3533033.0371536-.3602657.0084706-.0069624-.0285797-.1882036-.0001722-.4027582.0632196-.2145234.0634262-.3955148.0928323-.4021963.0654233-.0066814-.0274778-.2153976-.0090904-.4639213.0407346-.2484925.0497906-.4574584.0674549-.4643584.0391163-.0068687-.0282698-.1646001-.0065423-.350587.0484133-.3232681.0955181-.3395033.0938997-.3714118-.0374635-.0183583-.0755467-.0075244-.18594.0240094-.2453031.0316274-.0593286.0484559-.1447233.0374971-.1898654-.0109588-.0450732.0075244-.1239944.0409939-.1754034.033532-.0514434.0492989-.1413144.0351243-.1996789-.0142058-.0583989-.0023728-.1131135.0261949-.1215841.0286302-.0084362.0272564-.1171766-.002966-.2416187-.0302537-.1244421-.031565-.2331481-.0029348-.2416187.028599-.0084362.0272564-.1172455-.002966-.2416187-.0485183-.1997478-.0693119-.2220261-.1770263-.1902097-.1354079.0400115-.5481259.7452751-.5574611.9527015-.0030597.0676959-.0273501.1295038-.0540133.137389-.0266944.0078852-.0392767.0524764-.0279121.099168.0113334.0466572-.014518.0952426-.0574165.1079141-.0429297.0126715-.0687499.061188-.0574165.1079141.0113647.0466572-.0027787.0917304-.0314089.100201-.028599.0084706-.0410251.0606027-.0275686.115937.0507038.2087693-.1115547.3495672-.5529652.4800007-.2285107.0675238-.4209292.1003387-.4276106.0727921-.0066814-.0274089-.1920127-.0158393-.4118749.0256528-.2198623.041561-.4054121.0522698-.412312.0238279-.0069-.0284075-.1545155-.0098135-.328045.0414577s-.3659168.080574-.4276418.0650446c-.0615689-.0154606-.2574843-.0023415-.4351662.0290962-.1777132.0314376-.3284509.0352942-.334945.0086772-.0064941-.0267203-.1521739-.0070244-.3238613.0437303-.1716562.0507203-.3179292.0680403-.3251102.0384965-.007181-.0296127-.1576689-.0295782-.3344767,0-.1767141.0296127-.3267649.0316787-.3333527.0046141-.0065878-.027099-.1270093-.0152884-.2676937.0263071-.1406844.041561-.2710969.0501005-.2897986.0190416-.0188266-.0310589-.1478341-.0374635-.2868326-.0140488-.103999.0174233-.1967583.0200402-.2396568.0089527-.1056538.0087805-.2093094.0121894-.309718.0067489-.0766802.0086083-.1517993.001033-.1923561-.0218652-.0555432-.0080918-.1099311-.0186284-.163601-.0309211-.0227293.0009986-.0468324-.0011363-.0663146.0046141-.0694368.0205223-.1325043.0118795-.14006-.0192482s-.0739327-.0387719-.1474595-.0170445c-.073558.0217274-.1781815.0117073-.2323821-.0222784-.0542943-.0339857-.1437753-.0484477-.1989438-.0321263-.0551997.016287-.1058411.0069211-.1125538-.0208322-.0067439-.0277188-.068906-.0492741-.1381867-.047759-.0351243.0007231-.0832991-.0082296-.1325668-.0229326-.2529884.0113974-.4908967-.018594-.7115083-.084947-.270691-.0139455-.5241789-.0716213-.7533452-.1758855-.0964122.0019627-.1863615-.0123271-.2772475-.0243444-.040307.035914-.090605.0637361-.1340654.097102-.2125252.2784968-.4905221.5141241-.8385489.6868073-.1028751.1811882-.2201433.3543534-.3694761.5062389-.0423989.111805-.0847978.2236101-.1271967.3354495.0065878.0283042.014237.0563329.0190139.0850503.0001873.0005509.0020606.0018938.0021855.0024103.0225108.0926257.4899289.3629962.5810022.3361038.0297854-.0088149.0594146.0053716.0657838.0316442.006338.0261693.1111176.0702096.2328505.0978595.1216705.0276844.23616.0601206.2544246.0721723.0928217.0612225.372848.1309155.4429092.1102211.0439287-.0129814.0855471-.0001377.0925095.0285108.0069312.0286141.0869208.0480689.1777132.0432138.0908235-.0048895.1708132.0145653.1777444.0431794.0069624.028683.0946014.027891.1946977-.0016872s.1879226-.0295094.1951348.0002066c.0072434.0296815.0990973.0465194.2041891.0373257.105123-.0091593.1966022.0060603.2032836.0336069.0067439.0276844.1058099.0226571.2202682-.0111908.1144271-.0338135.2136804-.0382554.2205804-.0098479.0069.0283731.1103058.041079.2298532.0283386.1195162-.0128092.2229844-.0001033.2298844.0283042.0069.0283731.1178302.0204534.2465567-.017561.1287265-.0380488.2395319-.0466572.2462133-.0190761.0066814.0274778.1451491.0294749.3076573.0043386.1625395-.0251019.3012569-.0220373.3082818.0068522.0069936.0288207.1512061.0115696.3204894-.038462.1692521-.0499972.3222066-.066904.3399404-.0374979.0177651.0293372.2054691.0187662.4170577-.0235524.2116198-.0422841.3900511-.0551278.3965139-.0285108.0064629.0265825.1853625-.0029613.397513-.0656644.2121193-.0627031.3996673-.0910073.4167767-.0628753.0169845.0280976.251521.0038221.5210568-.053957.269567-.0578824.4953926-.0834664.5018243-.0569872.0064004.0264104.2443088-.0206944.5287061-.1047462s.5349816-.1343933.5568679-.1118739c.0219488.022485.2320387.0032367.4667625-.0428006.234755-.0460029.4326061-.0600173.4396621-.0310244.0070249.028924-.0106466.0595352-.0392143.0679714-.028599.0084706-.0427423.0536127-.0314089.1002354.0113647.046726-.0028099.0917648-.0314089.100201-.0286302.0084706-.0365292.0790245-.0176402.1568094.0189203.0778193.0113959.1482011-.0166723.1564995-.0280057.008264-.0502043.0830188-.0492989.1661064.0009679.0831221-.0191388.1572226-.0446468.1647635-.0254768.0075409-.0397451.0410101-.0316587.0743071.0081176.0334003-.0058697.1047462-.0310967.1587032-.1144895.2447521-.1334722.3111396-.1130221.3952947.0119891.0494118-.0223546.1661753-.0763367.2593174-.0540133.0932799-.0850163.2238855-.0688436.2903419.0161103.0663875.0064004.1275411-.0216678.1358395s-.0502667.0830188-.0492989.1661408c.0009991.0830876-.0191388.1572226-.0446468.1647635-.0255392.0075409-.0371224.0518566-.025789.0985482.0113647.0466572-.0022792.0916271-.0304098.0999255-.0280057.008264-.0502043.0830532-.0492676.1661408.0009991.0830532-.0191388.1571882-.0446156.1647291-.0255392.0075409-.0340627.0646314-.0189203.1268524.0151112.062221.006619.1192771-.0189203.126818-.025508.0075409-.0455835.0817103-.0446468.1647635.0009679.0830876-.0212307.1578424-.0492989.1661408s-.041712.0532684-.0303786.0998911c.0113334.0466916-.0002186.0910073-.025789.0985482-.025508.0075409-.0455835.0817103-.0446468.1647979.0009679.0830532-.0212307.1578424-.0492989.1661408-.028037.008264-.0355301.0786802-.0166411.1564651.018889.0777505.0113647.1482011-.0166723.1564995-.0280057.008264-.0502355.0830532-.0492989.1661408.0009679.0830532-.0191388.1571882-.0446468.1647291-.0255392.0075409-.0397763.0409412-.0316587.0743071.0290985.119828-.0980045.2671682-.2760299.3197824-.0998154.0294749-.1832082.0840518-.1853.1213086-.0022167.0372913-.1110863.1139399-.2420608.1703073-.1309433.0564707-.2326319.1247864-.2260754.1517821.0065878.027099-.0716223.0739284-.1737793.1041264-.1022194.030198-.2116198.1034377-.2431848.1628008-.0315962.0593631-.1033434.1214808-.1594173.1380432-.0561676.0165969-.1527359.1279543-.2147107.2474379-.1498011.2891023-.081863.6176652.1484273.717694.0857032.0373257.1609784.089079.1672852.1150073.0163913.0674549.1890778.1679314.2550802.1484421.0306596-.009056.0649721.021693.0763055.0683846.0113334.0466227.0457084.0774406.076368.0683846.1729675-.0511335.4380386.4024912.295356.5054469-.030441.0219685-.0433043.0894922-.0285677.1501638.0147054.0606027-.0047457.1351853-.0433355.1657621-.0385274.0306112-.0553246.1165568-.0372161.1910017.0180773.0744104.0120203.141521-.0135502.1490619-.0254144.0075065-.045521.0817103-.0445844.1647635.0009054.0830876-.0212931.1578424-.0492989.1661064-.0280994.0082984-.0384025.0670761-.0229479.1306401.0154235.0634951-.0061194.1852513-.0479251.2705427-.0417432.0852914-.0752752.2168611-.0743698.2922701.0008742.0754434-.0192949.1433115-.0447717.1508524-.0255705.0075409-.0376532.049825-.026913.0939686.0229166.0943818-.0555744.4972173-.1054352.5412576-.0189827.016769-.0223546.0799886-.0076181.1406257.0147054.0605682-.0048393.1351853-.0433668.1657276-.0385899.0306457-.0583843.1038854-.0440849.1627319.0142995.058881.0026226.1139743-.0260076.1224449-.0286302.0084362-.0403695.0631507-.0261637.1216185.0141746.0583645-.0016547.1482011-.0351243.1996445-.0335007.051409-.0492989.14128-.0351243.1996445.0142058.0583989.0083674.1116329-.0130818.1182785-.021418.0066801-.0572916.1400404-.0798023.2964021-.022542.1563962-.0591024.2896876-.0813634.2962644-.0221673.0065423-.031565.0481034-.020856.092178.0229479.0944851-.0554807.4972518-.105404.541292-.0189203.0167346-.0225732.0791967-.0080864.1388008.0144868.0596385.0055262.1146286-.0200442.1221695-.025508.0075409-.0456459.0816414-.0446468.1647635.0009679.0830876-.0212307.157808-.0492364.1661064-.0281306.0082984-.0356238.0786802-.0167035.1564995.018889.0777849.0135189.1475468-.0120203.1550877-.025508.0075409-.0456147.0817103-.0446468.1647979.0009366.0830532-.0212307.1578424-.0492989.1661408-.0280994.0082984-.0355614.0786802-.0166723.1564651.0189203.0777505.0135189.1475468-.0120203.1551222-.025508.0075409-.0455835.0817103-.0446468.1647635s-.0212307.157808-.0492989.1661064c-.028037.0082984-.0355301.0787146-.0166411.1564995.018889.0777505.0134565.1475813-.0120203.1551222-.025508.0075409-.0456147.0816759-.0446781.1647291.0009679.0830876-.0212619.1578768-.0492989.1661408-.028037.0082984-.036217.0760288-.0181397.1504737.0181085.0744104.0013425.160356-.0372161.1909673-.0385274.0305768-.0575101.1072598-.0421491.1705139.015361.0631852.0044959.1217907-.0241031.1302613-.0286302.0084706-.0372473.0762698-.0191388.1507147.0180773.0744449.0013737.1603905-.0372161.1910017-.0385586.0305424-.0575414.1073287-.0422116.1705139.015361.0632196.0045583.1217907-.0240718.1302269-.028599.0084706-.0365605.0790589-.0176714.1568094.0189203.0777849.0135189.1475468-.0120515.1550877-.0254768.0075409-.0456147.0817103-.0446156.1647635.0009679.0831565-.0212619.1578768-.0492364.1661408-.0281619.0082984-.0355926.0787146-.0167035.1564651.018889.0778538.0135189.1475813-.0120203.1551222s-.0456147.0817103-.0446781.1647979c.0009679.0830876-.0211994.1578768-.0492676.1661753-.0280994.0082984-.0386523.0659398-.0235411.1281953.038465.1582212-.0999402.3932631-.2592951.4403679-.0352492.0104333-.0730585.0318853-.1066841.0570905.0739327.5089591.0367166,1.0408508-.1104619,1.5269806.0979421-.0335036.127103-.0205911.1411215.0370503.0123013.0506859.0015299.0984105-.0240094.1059514-.0254144.0075065-.0455523.0816759-.0446156.1647291.0009366.0830876-.0212619.1578768-.0492989.1661408-.0280994.0082984-.0355301.078749-.0166411.1564995s.0108963.1483044-.0176402.1567405c-.028599.0084706-.0369976.0772684-.0186393.1527807.0183271.0755123.0074932.1859056-.0240406.2452686-.031565.0593286-.0446156.1605971-.0289424.2250907.0156732.0644592.0069312.1234779-.0194198.1312943-.0263198.0077819-.0447717.0951049-.0409315.193963.0038715.098927-.0145493.186181-.0409003.193963s-.032408.0778193-.0135189.1555698c.018889.0777849.0109588.1483044-.0176714.1567405-.0286302.0084706-.0394328.0671106-.0240718.1303302.015361.0631852-.0036529.1399715-.0421803.1704794-.0385899.0306457-.0553246.1165224-.0372473.1909673.0181085.0744449.0094914.1422785-.0191076.1507491-.0286302.0084362-.0418993.060155-.029598.1148696s0,.159082-.0273189.2318052c-.0273189.0728609-.035374.1911739-.0179524.2630018.0174529.0718279.0108651.1368036-.0146429.1443445s-.0456147.0816414-.0446468.1647291c.0009054.0830876-.0212931.1578768-.0492989.1661408-.028037.0082984-.0355614.0786802-.0166723.1564995.018889.0777505.0134877.1475468-.0120515.1551222-.0254144.0075065-.0455523.081607-.0446156.1647635.0009366.0830532-.0212619.157808-.0492989.166072-.0280994.0083329-.0355614.078749-.0166723.1564995.0189203.0777849.0135189.1476157-.0120515.1551566-.0254768.0075409-.0456147.0816759-.0446156.1647291.0009366.0830532-.0212619.1578424-.0492676.1661408-.0280994.0082984-.0355614.0787146-.0166723.1564995.0061506.0253774-.0002186.0370847.0000312.0569183.0177026.0388408.0369039.0767519.0530142.116488.1399975.1111508.2645404.2382442.3764072.3771139.1063407-.1196903.2245455-.2278798.3544273-.3233634-.0108963-.0659743-.0052764-.1238567.0198569-.1312599.0286302-.0084706.0365605-.0789901.0176714-.156775-.0213868-.0880116-.0049018-.1501293.0436165-.1644536.0485808-.0143587.0650658-.0764764.043679-.164488-.018889-.0777505-.0109588-.1483044.0176714-.1567405.028599-.0084706.0365605-.0790589.0176402-.1568094-.0213556-.0880116-.0048393-.1501293.043679-.164488.0485183-.0143243.0650345-.076442.0436478-.1644192-.018889-.0778538-.01099-.1483388.0176402-.1568094.0286302-.0084362.0372161-.0763043.0191388-.1507491-.0180773-.0744104-.0013737-.160356.0372161-.1909673.0385274-.0305768.0575414-.1072943.0421803-.1705483-.0153298-.0631852-.0045271-.1217218.0241031-.1301924.028599-.0084362.0372161-.0763043.0191388-.1507491-.0181085-.0744449-.0013425-.1604249.0372161-.1910017.0385274-.0305424.0575414-.1073287.0421803-.1705139-.015361-.0632196-.0044647-.1217907.0241031-.1302613.0285677-.0084362.0365292-.0790245.0176402-.1568094-.018889-.0777505-.0135189-.1475813.0120203-.1551222.025508-.0075409.0456147-.0816414.0446468-.1647635-.0009366-.0830876.0212307-.157808.0492989-.1661064.0280994-.0082984.0355614-.0786802.0166411-.1564995-.018889-.0777849-.0135189-.1475813.0120203-.1551222s.0456147-.0816414.0446781-.1647635c-.0009679-.0830532.0212307-.1578424.0492989-.1661408.028037-.008264.0355301-.0787146.0166411-.1564995-.018889-.0777505-.0109588-.1483044.0176714-.1567405.028599-.0084706.0427423-.0535438.0314089-.1002354-.0113334-.0466572.0144556-.0952082.0573852-.1078796.0485183-.0143587.0650345-.0764764.043679-.164488-.018889-.0777505-.0134877-.1475468.0120515-.1550877.0254144-.0075409.0455523-.0817103.0446468-.1647979-.0009679-.0830532.0212307-.1578424.0492364-.1661064.0280994-.0082984.0355614-.0787146.0166723-.1564651-.018889-.0777849-.0134877-.1476157.0120515-.1551566.025508-.0075065.0456147-.0817103.0446468-.1647635s.0212619-.157808.0492676-.1661064c.0280994-.0082984.0382152-.0677992.022542-.132224-.015642-.0644592-.0029973-.1650734.0280994-.2235412.0311279-.0585022.06722-.1421408.0802082-.1860777.041431-.1397649.2981348-.3730507.4647018-.4222904.0885444-.0261693.1548278-.0729987.1472721-.1041608-.0075556-.0310933.0698114-.0812282.1719996-.1114263s.2115886-.1034722.2431848-.1628008c.031565-.0593631.1376559-.1316042.2356916-.1605626.0980669-.0289929.1721245-.0781637.1645689-.1092914-.0075556-.0310933.0754313-.0829155.1843946-.1151106.1089321-.0321952.2344115-.1093258.2789023-.1714091.0443659-.0621177.1566074-.1361838.2493667-.1646258.0927281-.0285452.1624146-.077234.154859-.1083273-.0075868-.0311277.0781788-.0837419.1906077-.11697.112304-.0331937.2301342-.1089126.261668-.1682757.0315962-.0593631.1293197-.129125.2171772-.1550877s.1535789-.0726543.1460233-.1037476c-.0075556-.0311622.0519527-.0759944.132317-.0997534.0803955-.023759.1824276-.0940374.2268559-.1560519.0444595-.0621522.144993-.1327749.2233903-.1569471.0783974-.0242755.136407-.0695898.1288514-.1006486-.0075556-.0310933.0547939-.0767863.1385925-.1015439.0837675-.0247576.1781503-.0936242.2096841-.1529873.0316274-.0593286.1058723-.1222383.1651621-.1397305.0592585-.0175266.1023443-.053957.0957566-.0811594-.006619-.0271679.0776793-.0932799.187267-.1469615.1096189-.0537849.1931366-.1228237.1856747-.1535727-.0074932-.030749.0683128-.0801264.1684404-.1097046.1001588-.0296127.176558-.0765109.1698141-.1042297-.0067439-.0277533.0423677-.0837074.1091194-.1243732.0668142-.0406313.1153637-.0988925.1079642-.129366-.0074307-.0305424.0449903-.0728265.1164877-.0939686.0715598-.0211421.1238872-.0638738.1163316-.0949671-.0075868-.0311277.043117-.0733774.112585-.0938997.0694055-.0205223.1520803-.0858423.1836765-.1452398.031565-.0592942.1059036-.1222039.1651933-.1397305.0592273-.0174921.1021882-.0544735.0954443-.0822957-.0067126-.02765.0423677-.083673.1091506-.1242699.0667829-.0406658.1153325-.0989614.107933-.1294005-.0074307-.0305768.0450215-.0728265.1165189-.0939341.0715286-.0211421.1245428-.0611192.117799-.0889069-.0067439-.0276844.0423677-.083673.1091194-.1242699.0667829-.0407346.1153637-.098927.107933-.1294693-.0073995-.0305079.0450527-.0727232.1165813-.0938653.0714974-.0211421.1244804-.0611192.1177365-.0889069-.0067126-.0276844.0423989-.083673.1091818-.1243043.0667517-.0407002.1153013-.0988925.1079017-.1294349-.0074307-.0305079.0344374-.0696242.0930403-.0869442.0585717-.01732.145274-.1111508.1926371-.2084938.0474256-.097343.1260727-.1888324.1749345-.20326.0488305-.0144276.1136465-.0676271.1441188-.1183474.122451-.2040519.1778068-.2799086.2114325-.2898254.0193886-.0057504.0739639-.0900776.1213895-.1874551.0473943-.097343.111742-.1845971.1430885-.1938597.0313777-.0092626.0957878-.0964822.1431509-.1938252.0474256-.0973775.1026253-.1819113.1229193-.1879027.0202004-.0059914.0616002-.0523387.0920724-.1030245.1313491-.2187205.1793679-.2803218.2304464-.2954036.0297854-.0088149.0475817-.0432483.0394641-.0766142-.0183271-.0754434.0772422-.2610391.1446808-.280976.0275999-.0081263.0493301-.0827433.0483622-.1658309-.0009366-.0831221.0212931-.1578424.0492989-.1661408.0280682-.008264.0417745-.0532684.0304098-.0999255-.0113334-.0466916.0027787-.0917304.0313777-.100201.028599-.0084362.0453962-.0426973.0373098-.0759599-.0080864-.0333315.0059633-.1048151.0311279-.1587377.1213582-.2594207.1315052-.3190593.0861715-.5056535-.0267569-.1101867-.025227-.2072542.0033719-.2157248.0289112-.0085395.0153298-.1662097-.0304723-.3547666-.045802-.1885225-.1055289-.3325571-.1344713-.3240177-.0285677.0084362-.0679069-.0501005-.0873267-.1300547-.019451-.0800231-.0731834-.1723388-.1195474-.2051194-.1998493-.1415554-.2560481-.1935153-.2695046-.2489874-.0078991-.0324362-.0361858-.0525108-.062849-.0446256-.0266944.0078852-.0767738-.0339513-.1113673-.0930044-.0695617-.1189672-1.0787677-.7677945-1.1578207-.7444487-.027475.0081263-.1954158-.0786802-.3732851-.1927922-.1777756-.1142154-.3382857-.2031911-.3566752-.1977506-.0423677.0124993-.1615404-.0457963-.4826542-.236316-.1407156-.0833975-.2690987-.1477534-.285209-.1430016-.0323455.0095725-.2837104-.1295726-.6582443-.3644424-.3304179-.2071509-.4127804-.272712-.42964-.3421985-.0078991-.0324362-.0377469-.0519599-.0663458-.0435237-.0286302.0084706-.0710915-.063254-.0944452-.1594608-.0621934-.2559774.0763992-.4370279.412593-.5387784.1498948-.0454176.2672879-.104333.260825-.13095-.0064629-.0265825.1473034-.1112541.3416889-.1881782.1943543-.0768208.3932981-.1804651.442035-.2302901.0487993-.049825.2774661-.146445.5081623-.214623.2307586-.068178.4142166-.1458252.4077537-.172511-.0065253-.0267547.1801485-.1195525.4148098-.2062557.2346613-.0867376.4687294-.200643.5201826-.2531539.0513595-.0526141.2705037-.1479256.4869628-.2119027.2163967-.0639427.388209-.1380777.3817149-.1646946-.0064941-.0267203.1772136-.1197936.4081908-.2068066.2310084-.0870819.4217722-.1882126.423864-.2248841.0022792-.0396328.1598232-.1126314.389614-.180534.212213-.0627375.380466-.1358739.3739407-.1626286-.0064941-.0267547.1166126-.1024736.2736571-.1683446.1570133-.0658021.3037234-.1538826.3258907-.1957535.0222922-.0418365.152892-.109257.2902045-.1498194.1372812-.0405969.2434034-.0992369.2358477-.1303646s.0665019-.0802641.1646626-.1092914c.0980045-.0289584.2041266-.1011996.2356604-.1605626.0342813-.0644248.1531418-.1362183.2952312-.1781925.1307247-.0386342.2320075-.0936587.2250451-.1223072-.0069624-.0286141.0534825-.0895611.1343464-.1354263.0808326-.0458652.1412776-.1068466.1343152-.1354607-.0069624-.0286485.0692494-.0762698.169377-.1058825.1001588-.0295782.1759648-.0787146.1685653-.109257-.0074307-.0305079.0411812-.0887347.107933-.129366s.1158945-.0966199.1091506-.1243732c-.0067439-.0277877.0345623-.064287.0917602-.0811938.0572291-.0169068.0978172-.0561952.0902616-.0872885-.0075556-.0311622.021418-.0669728.0642852-.0796443.0428984-.0126715.0687499-.0612569.0574165-.1079141-.0128321-.0527519.0285053-.0993402.1094316-.1232713.0714974-.0211076.1233876-.0656644.11527-.0990303-.0190139-.078267.0783349-.2613146.1503631-.2825944.0306284-.009056.0486744-.0453831.0401197-.0806429-.0000312-.0000689.0497047-.1085683.0825811-.2337335.0547626-.2084594.1360948-1.0145093-.1232628-1.3676576ZM15.2189743,15.723028c.0599766-.0177332.1154886.0055782.127103.0533717.0113334.0466916.0557305.0744793.0986289.0618078.0429297-.0127059.0842046.0023759.0917602.0335036.0075556.0310933.0485808.0462784.0911358.0337102.0425238-.0125682.2258256.0696931.4074103.1827377.1816159.1130446.3432187.201676.3591729.1969587.0399324-.0118106.2148668.1008208.2256695.1452742.0048393.0198336.1054665.0943818.2236401.1655555.2630105.1585311.4937067.5703193.468105.8355593-.0091479.0943818.0015611.2463016.0237596.3376188.0221673.0912483.0228854.171478.0014674.1781581-.021418.0067145-.0589151.1269901-.083424.2671682-.0245089.1402125-.0641603.2607981-.0882322.2678913-.0239782.0070933-.0343749.0510646-.0230103.0977562.0113334.0466572-.0144556.0952082-.0574165.1078796-.0428672.0126715-.0714037.0503071-.0633173.0836041.0160479.0660087-.0739951.2601094-.1280084.276052-.0540133.0159771-.1440563.2100778-.1280397.276052.0080864.0333659-.0096787.0677992-.0394641.0766142-.0510785.0150818-.0990973.076683-.2304464.2953691-.030441.0507892-.0803955.0995812-.1110551.1086716-.0306596.009056-.0502355.0391507-.0434916.066904.0067439.0276844-.0423677.083673-.1091194.1243732-.0667829.0406313-.1153637.0988581-.107933.129366.0073995.0305424-.0216053.0658365-.0645662.0785424-.0428672.0126715-.0719345.0480345-.064535.078508.0074307.0305424-.04115.0887347-.1079017.1294005-.0667829.0406313-.1158945.0966544-.1091506.1243388.0067439.0277877-.0345623.0643215-.0917602.0812282s-.0985041.0533717-.0917602.0811938c.0067439.0277188-.0423677.0837074-.1091506.1243732-.0667829.0405969-.1153325.0988581-.107933.1293316.0074307.0305424-.0450527.0727921-.1165501.0939341-.0714974.0211076-.1245428.0610503-.117799.0888724.0067439.0277188-.0423677.0837074-.1091194.1243732-.0667829.0406313-.1153637.0988581-.107933.1293316.0073995.0305424-.0450215.0727921-.1165501.0938997-.0715286.0211421-.1243243.0618767-.1173619.0905597.0069312.0286141-.0534825.0895611-.1343464.1354263-.0808639.0458308-.1412776.1068122-.1343464.1353919.0069624.028683-.0357799.0664563-.0950385.0839485-.0592898.0175266-.1335659.0804018-.1651933.1397305-.0315026.0593975-.1142085.1246831-.1836453.1452054-.0695304.0205567-.1201718.0628064-.1126162.0938997.0075868.0311622-.0447405.0738939-.1162691.0950016-.0715286.0211421-.1241057.062772-.1168936.0924879.0072122.0296815-.0647223.0948638-.1599169.1448955-.0951633.0500316-.1675037.1135956-.1607911.1412111s-.0563549.0705195-.1401224.095277c-.0837675.0247231-.1781503.0935898-.2097153.152884-.0315338.0593631-.1292885.1291594-.2171772.1551222s-.1535165.0726543-.1459608.1037821c.0075556.0310933-.0387147.0729298-.1028438.09297-.0641603.0199713-.1529857.0871508-.1973515.1492685-.0444907.0620144-.134846.1287807-.2008796.1483044-.0660961.0195237-.1139275.0610159-.1063719.0920747.0075556.0311277-.0620685.0798165-.154859.1083617-.0927905.0284075-.2050008.1025425-.2493667.1646258-.0444595.0620489-.1581997.1357362-.2528635.1636961-.0946638.0279943-.1659114.0763387-.158387.1073976.0075868.0311277-.0447405.0738595-.1163003.0950016-.103999.030749-.1368754.0101578-.1643503-.1029901-.018889-.0777505-.01099-.1483044.0176402-.1567405.0286302-.0084706.0394641-.0670761.0241031-.1302613-.015361-.0632196.0035905-.1399371.0421803-.1705483.0385274-.0305768.0553246-.1165224.0372161-.1909673-.0180773-.0744449-.0120203-.141521.0135502-.1490963.0254144-.0075065.0455523-.081607.0446156-.1647635-.0009679-.0830532.0212619-.157808.0492676-.1661064.0280994-.0082984.0355926-.0786457.0166723-.1564995-.018889-.0777505-.0135189-.1475468.0120515-.1550877.025508-.0075409.0456147-.0817103.0446468-.1647635s.0212307-.1578424.0492676-.1661408c.0280994-.0082984.0355614-.0787146.0166723-.1564651s-.0135189-.1475813.0120203-.1551222c.025508-.0075409.0456147-.0817103.0446468-.1647635-.0009366-.0830876.0212307-.157808.0492989-.1661064.0280994-.0082984.0355301-.078749.0166411-.1564995-.018889-.0777849-.0135189-.1475813.0120203-.1551222.025508-.0075409.0456147-.0816759.0446781-.1647635-.0009679-.0830532.0211994-.1578424.0492989-.1661408.0280682-.0082984.041712-.0532339.0303786-.0998911s.0027787-.0917648.0314089-.1002354.0365605-.0790245.0176714-.1568094c-.0189203-.0777505-.0114583-.1481322.0166411-.1564306.0280682-.0082984.0502355-.0830876.0492989-.1661408-.0009679-.0830876.0191388-.157257.0446468-.1647979.0255392-.0075409.0309094-.0773373.0120203-.1550877-.018889-.0778193-.0114271-.1482011.0166411-.1564995s.0502667-.0830188.0492989-.1661064c-.0009366-.0831221.0191388-.1572226.0446781-.1647635s.033813-.0654233.0184519-.1286429.0035905-.1399715.0421803-.1705139c.0385274-.0305768.0553246-.1165224.0372161-.1910017-.0180773-.0744449-.0094289-.1422441.0191076-.1506803.028599-.0084362.0394641-.0670761.0241031-.1302957s.0036529-.1399371.0422116-.1705139c.0385274-.0306112.0552934-.1165568.0372161-.1910017-.0180773-.0744104-.0121764-.1414866.0130194-.1489242.0252895-.007472.0506102-.0627375.0562925-.122686.0192949-.2050161.0725277-.4003564.1122415-.4120981.0218239-.0064735.0242279-.0753401.0053077-.1531595-.018889-.0777505-.0113647-.1482011.0166723-.1564995.028037-.008264.0502667-.0830532.0492989-.1661064-.0009366-.0830532.0191388-.1572226.0446781-.1647635.0254768-.0075409.0375908-.049825.0268818-.0939686-.0245402-.1009585.0647223-.4778314.1169248-.4938084.0214492-.0065079.0241343-.0727576.006057-.1472369-.0181085-.0744449-.0013737-.160356.0372161-.1909673.0385274-.0305424.0575414-.1072598.0421803-.1705483-.015361-.0631507-.0104592-.1202412.0109588-.1268524.021418-.0067834.0572916-.1401092.0798023-.2964021.0226044-.1564306.0591649-.2897565.0813322-.2963333.022261-.0065768.0280057-.0628408.0128945-.1250619-.0151112-.0622555-.0066502-.1192771.018889-.126818.025508-.0075409.0456459-.0817447.0446468-.1647979-.0016235-.139214.0852973-.2429616.1118981-.133498.0063692.0261693.1108053.0703129.2320699.0981006.2105583.0482411.2531757.0639427.4706964.1735784.0522025.0263071.1192664.040528.1490518.0317475.0298166-.0088149.0603825.0094347.0679381.040528.0075868.0311622.0722467.0392884.1437753.0181808.0809263-.0239312.137812-.0064046.1506441.0464161.0113334.0466227.0567608.0741694.1010954.0610503.0442722-.0130847.150207.0237934.2353482.0819858.0852349.0581579.1963524.0935554.2469938.0786113.0506102-.0149785.161759.020419.2469626.0785769.0851412.0581923.2027529.0916271.2613558.0743071ZM23.6857956,6.4915543c-.0306284.009056-.0464265.0546113-.0350618.1013029.0128008.0527519-.0285053.0993746-.1094316.1232713-.0714974.0211421-.1238247.0639083-.1162691.0950016.0075556.0311277-.0431482.0733774-.112585.0938997s-.1521115.0858423-.1837077.1452398c-.031565.0592942-.1409654.1326028-.2431848.1628008-.1021258.0301636-.180367.0769929-.1737793.104092.0065565.0270302-.0951321.0953459-.2260754.1517821-.1309745.0564018-.2397817.1330504-.2420296.1703417-.002248.0389785-.1343776.1062957-.3116225.1586688-.1692833.0500316-.3020999.1142498-.2951687.1427262.0069.0284419-.1586056.1214808-.3678525.2067033-.209247.0852914-.374971.1775038-.3683209.2049128.0066814.0275122-.1984755.1122182-.4559598.1882815-.2574218.0760977-.4624539.1616989-.4555227.1901753.0069.0284419-.2404373.1459973-.5497182.2611424-.3093121.1151795-.5569304.2315986-.5503426.2587321.0065878.0270646-.2435907.1247864-.5558376.2170677-.3122781.0922813-.5697312.1939285-.5722289.2259171-.0024665.0319197-.2634164.1538137-.5799094.270887-.3164306.1170389-.5701059.234732-.563643.2612801.0064941.0267203-.2553612.1275411-.5820013.2240577-.3265776.0965166-.5957075.2017449-.598174.2339401-.0024041.0321263-.2399378.1472025-.5278631.2555642-.2878941.108465-.5181844.2190304-.5117215.2456818.0064629.0265825-.175434.1037476-.4043193.1713747-.2511463.0742038-.4216785.0998911-.4302332.0646658-.0078366-.0321607.0173904-.0833975.0559178-.1139743.0385899-.0306112.0584156-.1038165.0440849-.1626975-.0142995-.0589154-.0051828-.1132168.0203877-.1207921.025508-.0075409.0455835-.0816759.0446468-.1647635-.0009679-.0830532.0212307-.1578424.0492989-.1661408s.041712-.0532339.0303786-.0999255c-.0113334-.0466227.0027787-.0917648.0314089-.100201.0286302-.0084706.0372161-.0762698.0191388-.1507147-.0180773-.0744793-.0013425-.1604249.0372161-.1910017.0385274-.0305424.0575414-.1072598.0421491-.1705483-.0153298-.0631163-.0069936-.1209987.0184832-.1285396.025508-.0075409.0456147-.0817103.0446468-.1647635-.0009054-.0830876.0212931-.1578768.0492989-.1661408.0280682-.0082984.0384025-.0670761.0229791-.1306056-.0154547-.0635295.0060882-.1852513.0478939-.2706116.0418057-.0852569.0752752-.2168611.074401-.2922357-.0009054-.0754779.0192949-.1432771.044803-.150818.0255392-.0075753.033813-.0654233.0184519-.1286774-.015361-.0631852.0036529-.1399371.0421803-.1704794.0385274-.0306112.0584156-.1038165.0440849-.1627319-.0142995-.0588466-.0085235-.1125281.0128321-.1192082.0213868-.0067145.0589151-.1269557.083424-.2671338.0245714-.140247.0642228-.2608325.0882322-.2679258.0239782-.0070933.0288175-.0738251.0107402-.1482699s-.0013113-.160356.0372161-.1909673c.0386211-.0305424.0575726-.1072943.0422116-.1704794-.015361-.0632196-.0045271-.1218596.0241031-.1303302.028599-.0084706.0427423-.053475.0314089-.1002354-.0168909-.069452.0693743-.1114263.4768782-.2318396.2736571-.0808839.5476888-.1344277.6089143-.1190705.0613192.0153917.4679177-.0595697.903521-.166554.4356658-.1070188.7973677-.1730964.8037369-.1468582.0064004.0262382.2940447-.0357074.639168-.1376989.3451544-.102026.6804117-.1722355.7449466-.1559141.0645662.0162181.3658543-.0278221.6694529-.0978595.3035673-.0698997.5572113-.1055382.563643-.0790934.0064004.0264104.1726241.0004132.3693824-.0577103.2003176-.0592253.4489037-.0926945.5650792-.0760632.1139899.0163558.3133397-.0016528.4430028-.0399771.1296944-.0383243.2419359-.0441435.2494916-.0130847.0075556.0310933.1251048.0245165.2612309-.0145997.1360636-.0392196.3020062-.0473458.3686018-.0180086.0666268.0291995.1986004.0302669.293233.002307.0946638-.0279599.1783376-.0253774.1858932.0057848.0075556.0310589.0722467.039254.1437441.0181119s.1360948-.0135323.1435256.0170445c.0073995.0304735.0758684.0541636.1521115.0525453.0762431-.0016528.14415.0197303.1508938.0474836s.0473631.0401148.0902928.0274434c.0428984-.0126715.0872643.0150474.0986289.0617734.0113334.0466227.0439912.0779571.0726214.0694865.0285677-.0084362.0802707.1009585.1148017.2431338.0605698.2492629.0189515.4448098-.1022506.4806205Z" fill="#191919" stroke-width="0"/>
  <text transform="translate(28.8751039 26.2093584) scale(.9067252 1)" fill="#000" font-family="HighTowerText-Reg, &apos;High Tower Text&apos;" font-size="27.0794754" isolation="isolate"><tspan x="0" y="0">BOTTIGO</tspan></text>
  <path d="M22.4893646,53.6595761" fill="#191919" stroke-width="0"/>
  <path d="M-4.7021255,32.1914898" fill="#191919" stroke-width="0"/>
  <path d="M29.638298,55.0212781" fill="#191919" stroke-width="0"/>
</svg>