<svg viewBox="0 0 64 64" xmlns="http://www.w3.org/2000/svg" aria-label="Instagram icon" role="img" width="20" height="20">
  <path fill="#fde494" d="M14.345 64h7.638l-12.052-7.724-9.906-5.789c0.433 7.524 6.69 13.513 14.32 13.513z"/>
  <path fill="#fea150" d="M41.931 59.586l-8.626-2.207h-18.96c-4.259 0-7.724-3.465-7.724-7.724v-4.234l-3.31-3.553-3.31 0.585v7.202c0 0.279 0.009 0.557 0.025 0.832l21.958 13.513h26.096l-6.148-4.414z"/>
  <path fill="#ff5d4a" d="M55.207 55.017c-1.406 1.455-3.374 2.362-5.552 2.362h-16.35l14.773 6.621h1.577c5.15 0 9.675-2.729 12.205-6.816l-3.378-2.012-3.276-0.155z"/>
  <path fill="#e45261" d="M57.379 40.752v8.904c0 2.081-0.829 3.972-2.172 5.362l6.653 2.167c1.356-2.19 2.14-4.77 2.14-7.529v-7.851l-3.425-1.924-3.196 0.871z"/>
  <path fill="#ff4d95" d="M64 18.649l-3.525-0.84-3.095 1.853v21.089l6.621 1.053z"/>
  <path fill="#cb319c" d="M64 14.345c0-7.204-5.338-13.184-12.267-14.194l-8.679 3.611-4.398 2.858h10.999c4.259 0 7.724 3.465 7.724 7.724v5.318l6.621-1.014v-4.304z"/>
  <path fill="#8a3293" d="M39.717 0l-8.21 3.079-6.476 3.541h13.625l13.077-6.47c-0.679-0.099-1.372-0.151-2.078-0.151h-9.939z"/>
  <path fill="#ff5d4a" d="M32 50.759c2.295 0 4.494-0.415 6.528-1.172l-10.752-4.881-11.397-2.332c3.365 5.051 9.111 8.386 15.621 8.386z"/>
  <path fill="#e45261" d="M41.144 38.17c-1.985 2.933-5.343 4.865-9.144 4.865-5.034 0-9.288-3.39-10.608-8.006l-2.96-1.85-5.106 0.567c0.294 3.168 1.377 6.111 3.053 8.627l22.15 7.213c4.788-1.783 8.655-5.47 10.682-10.133l-3.969-2.011-4.097 0.728z"/>
  <path fill="#ff4d95" d="M20.965 32c0-2.735 1.002-5.238 2.656-7.168l-4.707-0.659-4.781 2.111c-0.578 1.803-0.892 3.723-0.892 5.715 0 0.589 0.03 1.171 0.084 1.746l8.066 1.283c-0.275-0.963-0.426-1.978-0.426-3.029z"/>
  <path fill="#ff4d95" d="M50.759 32c0-4.017-1.27-7.743-3.428-10.799l-4.675-0.663-4.802 2.115c3.109 1.954 5.181 5.412 5.181 9.348 0 2.284-0.697 4.408-1.89 6.17l8.066 1.283c0.994-2.286 1.548-4.805 1.548-7.453z"/>
  <path fill="#cb319c" d="M32 20.965c2.149 0 4.155 0.62 5.853 1.687l9.477-1.451c-3.4-4.812-9.004-7.96-15.33-7.96-8.351 0-15.444 5.486-17.867 13.043l9.489-1.453c2.025-2.364 5.029-3.866 8.379-3.866z"/>
  <path fill="#cb319c" d="M49.655 18.759c2.434 0 4.414-1.98 4.414-4.414s-1.98-4.414-4.414-4.414c-2.434 0-4.414 1.98-4.414 4.414s1.98 4.414 4.414 4.414z"/>
  <path fill="#ff5d4a" d="M6.621 39.196l-3.187-1.59-3.434-0.566v5.414l6.621 2.967z"/>
  <path fill="#e45261" d="M0 31.627v5.413l6.621 2.156v-6.516l-3.44-1.237z"/>
  <path fill="#ff4d95" d="M6.621 27.435l-3.402-0.031-3.219 1.045v3.178l6.621 1.053z"/>
  <path fill="#cb319c" d="M6.621 22.47l-3.507 0.356-3.114 2.92v2.704l6.621-1.014z"/>
  <path fill="#8a3293" d="M0 25.745l6.621-3.276v-7.549l-3.883 0.371-2.737 2.613z"/>
  <path fill="#523494" d="M25.632 0l-15.107 5.81-10.352 6.306c-0.114 0.727-0.173 1.471-0.173 2.229v3.56l6.621-2.985v-0.576c0-4.259 3.465-7.724 7.724-7.724h10.686l14.686-6.621h-14.084z"/>
  <path fill="#2d2d87" d="M14.345 0c-7.152 0-13.098 5.261-14.171 12.116l25.459-12.116h-11.287z"/>
</svg>