<svg xmlns="http://www.w3.org/2000/svg" id="_Слой_1" data-name="Слой 1" version="1.1" viewBox="0 0 321 55.8949066">
  <path d="M320.9060059,4.7700234c-.0509644,0-.1239624-.1634521-.1619873-.3632812-.0380249-.1997681-.1149902-.3632812-.1699829-.3632812s-.1000366-.1464844-.1000366-.3254395c0-.2138672-.0910034-.407959-.2630005-.5661011-.1449585-.1321411-.2639771-.2914429-.2639771-.3540649s-.117981-.2219849-.2630005-.354187c-.1450195-.1324463-.2630005-.2936401-.2630005-.3583984,0-.0648193-.0490112-.1179199-.1099854-.1179199-.1030273,0-.2220459-.0811157-.5700073-.3892212-.0809937-.0712891-.197998-.1297607-.2600098-.1297607s-.1129761-.0466919-.1129761-.1038208c0-.0570068-.0650024-.1038208-.1450195-.1038208-.0789795,0-.2039795-.0699463-.276001-.1557007-.0720215-.0855713-.2200317-.1557007-.3280029-.1557007-.1090088,0-.197998-.0406494-.197998-.0904541s-.1890259-.1204224-.4210205-.1569214c-.2319946-.0366211-.4209595-.1124878-.4209595-.1690063,0-.1661987-2.632019-.1110229-2.9470215.0617065-.1450195.0792236-.3699951.1447144-.5.1456299-.1309814.0007935-.2369995.0481567-.2369995.1052856,0,.0570679-.1190186.1037598-.2630005.1037598-.1640015,0-.2639771.0588989-.2639771.1557007,0,.0888062-.0940552.1557007-.2190552.1557007-.2549438,0-1.8859863,1.5780029-1.8859863,1.8239136,0,.1470337-.0679932.2523804-.3949585.6116333-.0720215.0795898-.1310425.2647705-.1310425.4116821,0,.1467896-.0429688.2669067-.0960083.2669067-.052002,0-.1279907.2334595-.1669922.5189819-.039978.2854004-.1159668.5189819-.1679688.5189819-.0530396,0-.0950317.3503418-.0950317.7785034,0,.4282227.0410156.7785034.0910034.7785034.0510254,0,.1240234.2803345.1630249.6228027.039978.3425903.1170044.6228027.1719971.6228027s.0999756.1401978.0999756.3114014c0,.1713257.0460205.3114014.1030273.3114014s.1329956.1168213.1690063.2595215c.0369873.1427612.1090088.2594604.1599731.2594604.052002,0,.0939941.0501099.0939941.1112061,0,.0612183.059021.1763916.132019.2560425.3120117.3435059.3939819.4608765.3939819.5626831,0,.0595093.0510254.1080933.1130371.1080933.1459961,0,.4140015.2640991.4140015.4078979,0,.0610962.0949707.111084.2099609.111084.1160278,0,.2109985.046814.2109985.1039429,0,.0570068.06604.1037598.1459961.1037598.0809937,0,.1740112.0700073.2080078.1557007.03302.0856323.1560059.1557007.2739868.1557007.118042,0,.2140503.0466919.2140503.1038208,0,.0570068.105957.1052246.2369995.1071167.1300049.001709.3289795.0717773.440979.1557007.1119995.0836792.3850098.1524048.6049805.1524048.2210083,0,.401001.0466919.401001.1037598,0,.0610352.3690186.1038208.8950195.1038208s.8950195-.0427856.8950195-.1038208c0-.0570679.2160034-.1037598.480957-.1037598.2870483,0,.5450439-.0627441.6390381-.1557007.0869751-.0857544.2730103-.1557007.4129639-.1557007.1409912,0,.2560425-.046814.2560425-.1038208,0-.0571289.0709839-.1038208.157959-.1038208.0870361,0,.15802-.0435791.15802-.0968628,0-.0532227.0969849-.1273193.2160034-.1645508.2539673-.0794678,1.572998-1.3343506,1.572998-1.4963989,0-.060791.0469971-.1106567.1040039-.1106567.0559692,0,.1329956-.1166992.1690063-.2595215.0360107-.1427002.1079712-.2595215.1599731-.2595215.0510254,0,.0939941-.1166992.0939941-.2594604,0-.1427002.0450439-.2595215.1000366-.2595215s.131958-.1635132.1699829-.3632812c.0380249-.1998291.1110229-.3632812.1619873-.3632812.052002,0,.0939941-.6773071.0939941-1.505127s-.0419922-1.505127-.0939941-1.505127ZM319.842041,7.468876c-.0580444,0-.1050415.1078491-.1050415.2396851,0,.1317749-.0700073.3302612-.1549683.4411011-.085022.1107788-.1560059.2832031-.15802.3831787-.0009766.0999146-.0499878.1815796-.1079712.1815796-.0580444,0-.1050415.0701294-.1050415.1557007,0,.0857544-.0719604.1557007-.157959.1557007-.0870361,0-.15802.0522461-.15802.1161499,0,.1508789-.7819824.921875-.9349976.921875-.0650024,0-.117981.0701294-.117981.1557007,0,.0864868-.0930176.1557007-.210022.1557007-.1160278,0-.2109985.046814-.2109985.1038208,0,.0570679-.0910034.1037598-.2030029.1037598s-.2739868.0701294-.3610229.1557007c-.0939941.0931396-.3519897.1557007-.6389771.1557007-.2650146,0-.4810181.046814-.4810181.1039429,0,.0570068-.2369995.1037598-.526001.1037598-.289978,0-.5269775-.0467529-.5269775-.1037598,0-.0571289-.2330322-.1039429-.5189819-.1039429-.3200073,0-.5790405-.0592651-.6760254-.1557007-.0869751-.0855713-.2559814-.1557007-.3759766-.1557007s-.2180176-.0466919-.2180176-.1037598c0-.0570068-.0709839-.1038208-.15802-.1038208-.0869751,0-.157959-.0435791-.157959-.0968018,0-.0532837-.1040039-.1293945-.2320557-.1693726-.2709961-.0848389-.5049438-.2946167-.5049438-.4530029,0-.0610962-.0710449-.1112061-.15802-.1112061-.0870361,0-.15802-.0700073-.15802-.1557007,0-.0856323-.0469971-.1557007-.1049805-.1557007s-.1049805-.0722046-.1049805-.1607056c0-.0883179-.1190186-.2687988-.2630005-.401001-.1700439-.1553955-.2640381-.3527832-.2640381-.5574341,0-.1741943-.0529785-.3342896-.117981-.3557739s-.1420288-.2822266-.1710205-.5795288c-.0289917-.2973633-.0939941-.5405884-.1449585-.5405884-.0500488,0-.092041-.1634521-.092041-.3632812s.0410156-.3632812.0910034-.3632812c.0490112,0,.117981-.2678223.1530151-.5952148.0339966-.3273926.1110229-.6115112.1719971-.6314087.0609741-.0200195.1099854-.1724854.1099854-.3389893s.0369873-.3027954.0820312-.3027954c.0449829,0,.1699829-.1635132.2799683-.3632812.1090088-.1998291.2380371-.3633423.2869873-.3633423.0480347,0,.0880127-.0700684.0880127-.1557007,0-.0856934.0510254-.1557007.1130371-.1557007.1459961,0,.4140015-.2640991.4140015-.4078979,0-.0610962.0489502-.111084.1089478-.111084.0610352,0,.2140503-.0952148.3400269-.211731.1270142-.116394.3380127-.2381592.4699707-.2706909.1310425-.0324707.2390137-.100769.2390137-.1516724s.1650391-.0925903.368042-.0925903.367981-.0432129.367981-.0961914c0-.1473999.2819824-.1900024,1.34198-.203125.5800171-.0072021.973999.02948.973999.0905151,0,.0564575.1900024.1323853.4210205.1690063.2319946.036499.4210205.1070557.4210205.1568604,0,.0499268.0959473.0905151.2139893.0905151.117981,0,.2409668.0701294.2739868.1558228.0339966.0855713.151001.1557007.2600098.1557007.1099854,0,.2000122.0466919.2000122.1037598,0,.0570068.0709839.1038208.157959.1038208.0859985,0,.1570435.0700073.1570435.1557007,0,.0855713.0509644.1557007.1129761.1557007.1459961,0,.4140015.2639771.4140015.4077759,0,.0610962.0460205.1112061.1029663.1112061.0570068,0,.1330566.1166992.1690063.2595215.0370483.1427002.1090088.2595215.1600342.2595215.052002,0,.0939941.1166992.0939941.2594604,0,.161499.0599976.2595215.15802.2595215.1099854,0,.157959.1095581.157959.3632812,0,.1998291.0469971.3632812.1050415.3632812.0639648,0,.1049805.4671021.1049805,1.1937256s-.0410156,1.1937256-.1049805,1.1937256Z" fill="#191919" stroke-width="0"/>
  <path d="M317.973999,9.0612222c-.072998-.0288696-.131958-.1187744-.131958-.199646,0-.0810547-.0370483-.1471558-.0810547-.1471558-.0449829,0-.1709595-.1634521-.2799683-.3632812-.1090088-.1997681-.2379761-.3632812-.2869873-.3632812s-.0889893-.1168213-.0889893-.2595215c0-.161499-.059021-.2594604-.15802-.2594604-.0859985,0-.15802-.0488281-.15802-.1085205,0-.0596313-.117981-.2252808-.2630005-.367981-.3150024-.3112183-.3399658-.5615234-.0559692-.5615234.2739868,0,.8460083-.5595093.8460083-.8269043,0-.1160889.052002-.2111206.1159668-.2111206.117981,0,.085022-.5769043-.0709839-1.1936646-.0830078-.3331299-.40802-.6746826-.6400146-.6746826-.0780029,0-.1419678-.0467529-.1419678-.1038208,0-.0656128-.7369995-.1038208-2.0020142-.1038208h-2.0010376l.0280151,2.9841919.0280151,2.984314.2470093.0346069c.1359863.0189819.3599854.0067139.4970093-.0270996.242981-.0601807.25-.0933838.2789917-1.3320923l.0289917-1.2703857.6240234.003479c.3939819.0021973.6399536.0501099.6669922.1298218.0229492.069397.0889893.1261597.1469727.1261597.1380005,0,.4039917.2681274.4039917.4078369,0,.0611572.0480347.1112061.1060181.1112061.0570068,0,.1049805.0700684.1049805.1557007,0,.0855713.0710449.1557007.15802.1557007s.15802.0922852.15802.2075806c0,.1141968.0469971.2075806.1049805.2075806s.1049805.0701294.1049805.1557007c0,.0856934.0440063.1557007.0980225.1557007s.1300049.0983887.1690063.218689c.1369629.4255371.3919678.6118164.8349609.6102295.4540405-.0018311.8470459-.1791992.6090088-.2745361ZM315.7109985,5.7026406c-.1599731.0009155-.289978.0483398-.289978.1054077,0,.0604248-.3469849.1038208-.8309937.1038208-.6600342,0-.8439941-.0336304-.8950195-.1642456-.0910034-.2344971-.0789795-1.5506592.0159912-1.6436768.0430298-.0429077.552002-.0623169,1.1310425-.0432739,1.0130005.0332642,1.065979.0467529,1.3949585.3572998.3930054.3706055.4100342.4615479.1600342.8487549-.2380371.3696289-.3400269.434021-.6860352.4359131Z" fill="#191919" stroke-width="0"/>
  <path d="M55.5693191,4.4066253c-.1032715-.1275024-.1917725-.2072144-.1917725-.2073364-.0576172-.2150269-.3528442-.4262085-.5296021-.3788452-.0598755.0160522-.1270752-.0383911-.149231-.1211548-.0221558-.0827026-.1088867-.1320801-.1928101-.1095581-.0838623.0224609-.1618652.0060425-.1732788-.0366211-.0114136-.0425415-.2036133-.1194458-.4272461-.1709595-.2235718-.0515137-.416687-.1317139-.4291382-.1781616s-.1173706-.059082-.2332153-.0280762c-.1159058.0310669-.2974854.0072632-.4035034-.0531006-.105957-.0602417-.303833-.0797729-.4396973-.043335-.1357422.036377-.2590332.0210571-.2738037-.0341187-.0147705-.0551147-.130249-.0739746-.2564697-.0421753-.1262207.0319824-.3361816.0157471-.4664917-.0361938-.130249-.0518799-.3424072-.06604-.4714966-.0314331-.1291504.0346069-.2453003.0236816-.2581787-.024292-.0128174-.0479126-.2455444-.0534058-.5172729-.0120239-.2717285.0414429-.5239258.0300903-.56073-.0249634-.0366211-.0550537-.2686768-.0460205-.515686.0201416-.2470703.0662231-.4596558.0810547-.4725342.0330811-.0128174-.0480347-.2582397-.0562134-.5452881-.0181885-.2869263.0379639-.5610352.0325928-.6089478-.0119629-.0479126-.0444336-.3131104-.0203857-.5894775.0536499s-.5130005.0950928-.5259399.046814c-.0129395-.0483398-.2900391-.0393677-.6157227.0200806-.3256836.0592651-.6237183.0605469-.6621704.0028076-.0443115-.0665283-.3456421-.0310669-.8240356.097168-.4147339.111084-.7647705.1621094-.777832.1134033-.0130615-.048645-.3295898-.0402832-.7033691.0186768-.3737183.059082-.6906738.0658569-.7042847.0150146-.0136108-.0506592-.3679199-.0003052-.7873535.1120605-.4193726.1124268-.7731934.1645508-.7862549.1159668-.0130615-.0487061-.4210815-.0161133-.9069214.0722046-.4857788.0882568-.8942871.1195679-.9077759.0693359-.0134277-.0501099-.3217773-.0115967-.6853638.0858154-.631958.1693115-.6636963.1664429-.7260742-.0664062-.0358887-.1339111-.0147095-.3295898.046936-.4348145.0618286-.1051636.0947266-.2565308.0733032-.3365479-.0214233-.079895.0147095-.2197876.0801392-.3109131.0655518-.0911865.0963745-.2504883.0686646-.3539429-.027771-.1035156-.0046387-.2005005.0512085-.2155151.0559692-.0149536.0532837-.2077026-.0057983-.4282837-.0591431-.2205811-.0617065-.413269-.0057373-.4282837.0559082-.0149536.0532837-.2078247-.0057983-.4282837-.0948486-.3540649-.135498-.3935547-.3460693-.3371582-.2647095.0709229-1.0715332,1.3210449-1.0897827,1.6887207-.0059814.1199951-.0534668.2295532-.1055908.2435303-.0521851.0139771-.0767822.0930176-.0545654.1757812.0221558.0827026-.0283813.1688232-.1122437.1912842-.0839233.0224609-.1343994.1084595-.1122437.1912842.0222168.0827026-.0054321.1625977-.0614014.1776123-.0559082.0150146-.0802002.1074219-.053894.2055054.0991211.3700562-.2180786.6196289-1.0809937.8508301-.4467163.1196899-.822876.1778564-.8359375.1290283-.0130615-.048584-.3753662-.0280762-.8051758.0454712-.4298096.0736694-.7925415.0926514-.8060303.0422363-.0134888-.050354-.302063-.017395-.6412964.0734863s-.715332.1428223-.8359985.1152954c-.1203613-.0274048-.5033569-.0041504-.850708.0515747-.3474121.0557251-.6420898.062561-.6547852.0153809-.0126953-.0473633-.2974854-.0124512-.6331177.0775146-.3355713.0899048-.621521.1206055-.6355591.0682373-.0140381-.0524902-.3082275-.0524292-.6538696,0-.345459.0524902-.6387939.0561523-.6516724.0081787-.0128784-.0480347-.248291-.0270996-.5233154.0466309-.2750244.0736694-.5299683.0888062-.5665283.0337524-.0368042-.0550537-.2890015-.0664062-.56073-.0249023-.2033081.0308838-.3846436.0355225-.4685059.0158691-.206543.015564-.4091797.0216064-.6054688.0119629-.1499023.0152588-.2967529.0018311-.3760376-.0387573-.1085815-.0143433-.2149048-.03302-.3198242-.0548096-.0444336.00177-.0915527-.0020142-.1296387.0081787-.1357422.036377-.2590332.0210571-.2738037-.0341187s-.1445312-.0687256-.288269-.0302124c-.1437988.0385132-.3483276.020752-.4542847-.0394897-.1061401-.0602417-.2810669-.0858765-.388916-.0569458-.1079102.0288696-.2069092.0122681-.2200317-.0369263-.0131836-.0491333-.1347046-.0873413-.2701416-.0846558-.0686646.0012817-.1628418-.0145874-.2591553-.0406494-.4945679.0202026-.9596558-.032959-1.3909302-.1505737-.5291748-.0247192-1.0247192-.1269531-1.4727173-.3117676-.1884766.003479-.3643188-.0218506-.5419922-.0431519-.0787964.0636597-.177124.1129761-.262085.1721191-.4154663.4936523-.9589233.9113159-1.6392822,1.2174072-.2011108.321167-.4303589.6281128-.72229.8973389-.0828857.1981812-.1657715.3963623-.2486572.5946045.0128784.0501709.027832.0998535.0371704.1507568.0003662.0009766.0040283.0033569.0042725.0042725.0440063.1641846.9577637.6434326,1.1358032.5957642.0582275-.015625.1161499.0095215.1286011.0560913.0123901.0463867.2172241.1244507.4552002.1734619.237854.0490723.4616699.1065674.4973755.1279297.1814575.1085205.7288818.2320557.8658447.1953735.0858765-.0230103.1672363-.0002441.1808472.0505371.0135498.0507202.1699219.0852051.3474121.0765991.1775513-.008667.3339233.0258179.3474731.0765381.0136108.0508423.1849365.0494385.3806152-.0029907s.3673706-.0523071.3814697.0003662c.0141602.0526123.1937256.0824585.3991699.0661621.2055054-.0162354.3843384.0107422.3973999.0595703.0131836.0490723.2068481.0401611.430603-.0198364.2236938-.0599365.4177246-.0678101.4312134-.0174561.0134888.050293.2156372.0728149.4493408.0502319.2336426-.0227051.4359131-.0001831.4494019.0501709.0134888.050293.2303467.0362549.4819946-.0311279.2516479-.0674438.4682617-.0827026.4813232-.0338135.0130615.0487061.2837524.0522461.6014404.0076904.317749-.0444946.5889282-.0390625.6026611.012146.0136719.0510864.2955933.0205078.6265259-.0681763.3308716-.088623.6298828-.1185913.6645508-.0664673.034729.052002.4016724.0332642.8153076-.041748.4136963-.0749512.7625122-.0977173.7751465-.0505371.0126343.0471191.3623657-.005249.7770996-.116394.4146729-.111145.781311-.1613159.8147583-.1114502.0332031.0498047.4916992.0067749,1.0186157-.0956421.5269775-.1026001.9684448-.1479492.9810181-.1010132.0125122.046814.4776001-.0366821,1.0335693-.1856689s1.0458374-.2382202,1.088623-.1983032c.0429077.039856.4536133.0057373.9124756-.0758667.4589233-.081543.8457031-.1063843.8594971-.0549927.0137329.0512695-.020813.1055298-.0766602.1204834-.0559082.0150146-.0835571.0950317-.0614014.1776733.0222168.0828247-.0054932.1626587-.0614014.1776123-.0559692.0150146-.0714111.1400757-.0344849.2779541.0369873.1379395.0222778.2626953-.0325928.2774048-.0547485.0146484-.0981445.1471558-.0963745.2944336.0018921.1473389-.0374146.2786865-.0872803.2920532-.0498047.0133667-.0776978.0726929-.0618896.1317139.0158691.0592041-.0114746.1856689-.060791.281311-.2238159.4338379-.2609253.5515137-.2209473.7006836.0234375.0875854-.0437012.2945557-.149231.4596558-.1055908.1653442-.1661987.3968506-.1345825.5146484.0314941.1176758.0125122.2260742-.0423584.2407837s-.0982666.1471558-.0963745.2944946c.0019531.1472778-.0374146.2786865-.0872803.2920532-.0499268.0133667-.0725708.0919189-.050415.1746826.0222168.0827026-.0044556.1624146-.0594482.177124-.0547485.0146484-.0981445.1472168-.0963135.2944946.0019531.1472168-.0374146.2786255-.0872192.2919922-.0499268.0133667-.0665894.114563-.0369873.2248535.029541.1102905.0129395.2114258-.0369873.2247925-.0498657.0133667-.0891113.1448364-.0872803.2920532.0018921.1472778-.0415039.2797852-.0963745.2944946s-.081543.0944214-.0593872.177063c.0221558.0827637-.0004272.1613159-.050415.1746826-.0498657.0133667-.0891113.1448364-.0872803.2921143.0018921.1472168-.0415039.2797852-.0963745.2944946-.0548096.0146484-.069458.1394653-.0325317.2773438.0369263.1378174.0222168.2626953-.0325928.2774048-.0547485.0146484-.0982056.1472168-.0963745.2944946.0018921.1472168-.0374146.2786255-.0872803.2919922-.0499268.0133667-.0777588.0725708-.0618896.1317139.0568848.2124023-.1915894.4735718-.5396118.5668335-.1951294.0522461-.3581543.1489868-.3622437.2150269-.0043335.0661011-.2171631.2019653-.4732056.3019409-.2559814.1000977-.4547729.2211914-.4419556.269043.0128784.0480347-.1400146.1310425-.3397217.1845703-.1998291.0535278-.4136963.1833496-.4754028.2885742-.0617676.1052246-.2020264.215332-.3116455.2446899-.1098022.0294189-.298584.2268066-.4197388.4385986-.2928467.5124512-.1600342,1.0948486.2901611,1.2721558.1675415.0661621.3146973.1578979.3270264.2038574.0320435.1195679.3696289.2976685.4986572.2631226.0599365-.0160522.1270142.0384521.1491699.1212158.0221558.0826416.0893555.1372681.149292.1212158.3381348-.0906372.8563232.7134399.5773926.8959351-.0595093.0389404-.0846558.1586304-.0558472.2661743.0287476.1074219-.0092773.239624-.0847168.2938232-.0753174.0542603-.1081543.206604-.0727539.338562.0353394.131897.0234985.2508545-.0264893.2642212-.0496826.0133057-.0889893.1448364-.0871582.2920532.00177.1472778-.041626.2797852-.0963745.2944336-.0549316.0147095-.0750732.1188965-.0448608.2315674.0301514.1125488-.0119629.3283691-.093689.4795532-.081604.1511841-.1471558.3843994-.1453857.5180664.001709.133728-.0377197.2540283-.0875244.267395-.0499878.0133667-.0736084.0883179-.0526123.1665649.0447998.1672974-.1086426.8813477-.2061157.9594116-.0371094.0297241-.0437012.1417847-.0148926.2492676.0287476.1073608-.0094604.239624-.0847778.2937622-.0754395.0543213-.1141357.1841431-.0861816.2884521.0279541.1043701.005127.2020264-.0508423.217041-.0559692.0149536-.0789185.1119385-.0511475.2155762.02771.1034546-.0032349.2626953-.0686646.3538818-.0654907.0911255-.0963745.2504272-.0686646.3538818.027771.1035156.0163574.197876-.0255737.2096558-.0418701.0118408-.1119995.24823-.1560059.5253906-.0440674.2772217-.1155396.5134888-.1590576.5251465-.043335.0115967-.0617065.0852661-.0407715.1633911.0448608.1674805-.1084595.8814087-.2060547.9594727-.0369873.0296631-.0441284.1403809-.0158081.2460327.0283203.1057129.0108032.203186-.0391846.2165527-.0498657.0133667-.0892334.1447144-.0872803.2920532.0018921.1472778-.0415039.2797241-.0962524.2944336-.0549927.0147095-.0696411.1394653-.0326538.2774048.0369263.1378784.0264282.2615356-.0234985.2749023-.0498657.0133667-.0891724.1448364-.0872803.2921143.0018311.1472168-.0415039.2797852-.0963745.2944946-.0549316.0147095-.069519.1394653-.0325928.2773438.0369873.1378174.0264282.2615356-.0234985.2749634-.0498657.0133667-.0891113.1448364-.0872803.2920532s-.0415039.2797241-.0963745.2944336c-.0548096.0147095-.069458.1395264-.0325317.2774048.0369263.1378174.0263062.2615967-.0234985.2749634-.0498657.0133667-.0891724.1447754-.0873413.2919922.0018921.1472778-.0415649.2798462-.0963745.2944946-.0548096.0147095-.0708008.1347656-.0354614.2667236.0354004.131897.0026245.2842407-.0727539.338501-.0753174.0541992-.1124268.1901245-.0823975.3022461.0300293.1119995.0087891.2158813-.0471191.230896-.0559692.0150146-.0728149.1351929-.0374146.2671509.0353394.131958.0026855.2843018-.0727539.338562-.0753784.0541382-.1124878.1902466-.0825195.3022461.0300293.1120605.0089111.2158813-.0470581.230835-.0559082.0150146-.0714722.1401367-.0345459.2779541.0369873.1378784.0264282.2615356-.0235596.2749023-.0498047.0133667-.0891724.1448364-.0872192.2920532.0018921.1473999-.0415649.2798462-.0962524.2944946-.0550537.0147095-.0695801.1395264-.0326538.2773438.0369263.1380005.0264282.2615967-.0234985.2749634s-.0891724.1448364-.0873413.2921143c.0018921.1472778-.0414429.2798462-.0963135.2945557-.0549316.0147095-.0755615.1168823-.0460205.2272339.0751953.2804565-.1953735.6970825-.506897.7805786-.0689087.0184937-.1428223.0565186-.2085571.1011963.1445312.9021606.0717773,1.8449707-.2159424,2.706665.1914673-.0593872.2484741-.036499.2758789.0656738.0240479.0898438.0029907.1744385-.046936.1878052-.0496826.0133057-.0890503.1447754-.0872192.2919922.0018311.1472778-.0415649.2798462-.0963745.2944946-.0549316.0147095-.069458.1395874-.0325317.2774048s.0213013.2628784-.0344849.277832c-.0559082.0150146-.0723267.1369629-.036438.270813.0358276.1338501.0146484.3295288-.0469971.4347534-.0617065.1051636-.0872192.284668-.0565796.3989868.0306396.1142578.0135498.2188721-.0379639.2327271-.0514526.0137939-.0875244.1685791-.0800171.343811.0075684.175354-.0284424.3300171-.0799561.343811s-.0633545.1379395-.0264282.2757568c.0369263.1378784.0214233.2628784-.0345459.277832-.0559692.0150146-.0770874.1189575-.0470581.2310181.0300293.1119995-.0071411.2481079-.0824585.3021851-.0754395.0543213-.1081543.206543-.0728149.338501.0354004.131958.0185547.2521973-.0373535.2672119-.0559692.0149536-.0819092.1066284-.0578613.2036133s0,.2819824-.0534058.4108887c-.0534058.1291504-.0691528.3388672-.0350952.4661865.0341187.1273193.0212402.2424927-.0286255.2558594s-.0891724.1447144-.0872803.2919922c.00177.1472778-.041626.2798462-.0963745.2944946-.0548096.0147095-.069519.1394653-.0325928.2774048.0369263.1378174.0263672.2615356-.0235596.2749634-.0496826.0133057-.0890503.1446533-.0872192.2920532.0018311.1472168-.0415649.2797241-.0963745.2943726-.0549316.0147705-.069519.1395874-.0325928.2774048.0369873.1378784.0264282.2616577-.0235596.2750244-.0498047.0133667-.0891724.1447754-.0872192.2919922.0018311.1472168-.0415649.2797852-.0963135.2944946-.0549316.0147095-.069519.1395264-.0325928.2774048.0369263.1378174.0264282.2615356-.0234985.2749023s-.0892334.1448364-.0873413.2920532-.0414429.2797852-.0962524.2944946c-.0549927.0147095-.0695801.1395264-.0326538.2773438s.0213623.2629395-.0344849.2779541c-.0559692.0149536-.0727539.1351929-.0373535.2671509.0061646.0230103-.005249.0425415-.0038452.0651855.0752563.1803589.1394653.3652954.194519.5536499.1681519.3378906.2803345.6992798.3692017,1.0680542.1397705-.0740967.2854004-.1411133.4370728-.201416.022644-.0894775.0371094-.1812134.0645142-.2692261.0008545-.0026855.0015259-.0054321.0023804-.0081177.1328125-.4249878.3180542-.829895.5545044-1.2034302.000061-.0001221.0001221-.0001831.0001831-.0003052-.0026245-.0338745.0001831-.0636597-.0099487-.1015015-.0369263-.1378784-.0213623-.2629395.0345459-.2779541.0559082-.0149536.0713501-.1400757.0344238-.2778931-.0418091-.1560059-.0094604-.2660522.0853882-.2915039.0948486-.0253906.1271362-.1355591.0853271-.2915649-.0369263-.1378174-.0214233-.2629395.0345459-.2778931.0559692-.0150146.0714722-.1400146.0345459-.2778931-.0418091-.1560059-.0095825-.2661133.0852661-.2915039.0949707-.0254517.1271973-.1355591.0853882-.2915649-.0369263-.1378174-.0214233-.2628784.0345459-.277832.0559082-.0150146.0714722-.1401367.0344849-.2779541-.041748-.1560059-.0094604-.2661133.0853882-.2915649.0948486-.0253906.1271362-.135498.0853271-.2914429-.0369263-.1380005-.0214844-.2629395.0344849-.2779541.0559692-.0149536.0727539-.1352539.0374146-.2672119-.0353394-.131897-.0026855-.2842407.0727539-.338501.0753174-.0541992.1124878-.1901855.0824585-.3023071-.0299683-.1119995-.0088501-.2157593.0471191-.2307739.0559082-.0149536.0727539-.1352539.0374146-.2672119-.0354004-.131958-.0026245-.2843628.0727539-.338562.0753174-.0541382.1124878-.1902466.0824585-.3022461-.0300293-.1120605-.008728-.2158813.0471191-.230896.0558472-.0149536.0714111-.1400757.0344849-.2779541-.0369263-.1378174-.0264282-.2615967.0234985-.2749634.0498657-.0133667.0891724-.1447144.0872803-.2920532-.0018311-.1472778.0415039-.2797241.0963745-.2944336.0549316-.0147095.069519-.1394653.0325317-.2774048-.0369263-.1378784-.0264282-.2615967.0234985-.2749634s.0891724-.1447144.0873413-.2920532c-.0018921-.1472168.0415039-.2797852.0963745-.2944946.0548096-.0146484.069458-.1395264.0325317-.2774048-.0369263-.1378174-.0214233-.2628784.0345459-.277832.0559082-.0150146.0835571-.0949097.0614014-.1776733-.0221558-.0827026.0282593-.1687622.1121826-.1912231.0948486-.0254517.1271362-.1355591.0853882-.2915649-.0369263-.1378174-.0263672-.2615356.0235596-.2749023.0496826-.0133667.0890503-.1448364.0872803-.2921143-.0018921-.1472168.0415039-.2797852.0962524-.2944336.0549316-.0147095.069519-.1395264.0325928-.2773438-.0369263-.1378784-.0263672-.2616577.0235596-.2750244.0498657-.0133057.0891724-.1448364.0872803-.2920532s.0415649-.2797241.0963135-.2944336c.0549316-.0147095.074707-.1201782.0440674-.234375-.0305786-.1142578-.0058594-.2926025.0549316-.3962402.0608521-.1036987.1314087-.2519531.1567993-.329834.0809937-.2477417.5828247-.6612549.9084473-.7485352.1730957-.0463867.3026733-.1293945.2879028-.1846313-.0147705-.0551147.1364746-.1439819.3362427-.1975098s.4136353-.1834106.4754028-.2885742c.0617065-.1052246.269104-.2332764.4607544-.2846069.1917114-.0513916.3364868-.1385498.3217163-.1937256-.0147705-.0551147.1474609-.1469727.3604736-.2040405.2129517-.0570679.458252-.1937866.5452271-.303833.086731-.1101074.3061523-.241394.4874878-.2918091.1812744-.0505981.3175049-.1369019.3027344-.1920166-.0148315-.0551758.152832-.1484375.3726196-.2073364.2195435-.0588379.4498901-.1930542.5115356-.2982788.0617676-.1052246.2528076-.2288818.4245605-.2749023s.3002319-.1287842.2854614-.1838989c-.0147705-.0552368.1015625-.1347046.258667-.1768188.1571655-.0421143.3566284-.166687.4434814-.2766113.0869141-.1101685.2834473-.2353516.4367065-.2781982.1532593-.0430298.2666626-.1233521.2518921-.1784058-.0147705-.0551147.1071167-.1361084.2709351-.1799927.1637573-.0438843.3482666-.1659546.4099121-.2711792.0618286-.1051636.2069702-.2166748.322876-.2476807.1158447-.0310669.2000732-.0956421.1871948-.1438599-.0129395-.0481567.1518555-.1653442.3660889-.260498.2142944-.0953369.3775635-.2177124.3629761-.2722168-.0146484-.0545044.1335449-.1420288.3292847-.194458.1958008-.0524902.3451538-.1356201.3319702-.1847534-.0131836-.0491943.0828247-.1483765.2133179-.220459.1306152-.0720215.2255249-.175293.2110596-.2293091-.0145264-.0541382.0879517-.1290894.2277222-.1665649.1398926-.0374756.2421875-.1132202.227417-.168335-.0148315-.0551758.0842896-.1300659.2200928-.1664429.1356812-.036377.2973022-.1521606.3590698-.2574463.0617065-.1051025.2070312-.2166138.322937-.2476807.1157837-.0310059.1997681-.0965576.1865845-.145874-.0131226-.0490112.0828247-.1483154.2133789-.2202759.1305542-.0720825.2254639-.175415.2109985-.2293701-.0145264-.0541992.0880127-.1290894.2277832-.1665039.1398315-.0374756.2434692-.1083374.2302856-.1575928-.0131836-.0490723.0828247-.1483154.2133179-.2202759.1305542-.0722046.2255249-.175354.2109985-.2294922-.0144653-.0540771.0880737-.1289062.2279053-.1663818.1397705-.0374756.2433472-.1083374.2301636-.1575928-.0131226-.0490723.0828857-.1483154.2134399-.2203369.1304932-.0721436.2254028-.175293.2109375-.2294312-.0145264-.0540771.0673218-.1234131.1818848-.1541138.114502-.0307007.2839966-.1970215.3765869-.3695679.0927124-.1725464.24646-.3347168.34198-.3602905.095459-.0255737.222168-.119873.2817383-.2097778.2393799-.3616943.3475952-.4961548.4133301-.5137329.0379028-.0101929.1445923-.159668.2373047-.3322754.0926514-.1725464.2184448-.3272095.2797241-.3436279.0613403-.0164185.1872559-.1710205.2798462-.3435669.0927124-.1726074.2006226-.3224487.2402954-.3330688.0394897-.0106201.1204224-.0927734.1799927-.1826172.2567749-.3876953.350647-.4968872.4505005-.5236206.0582275-.015625.0930176-.0766602.0771484-.1358032-.0358276-.133728.151001-.4627075.2828369-.4980469.0539551-.0144043.0964355-.1466675.0945435-.2939453-.0018311-.1473389.041626-.2797852.0963745-.2944946.0548706-.0146484.081665-.0944214.0594482-.177124-.0221558-.0827637.0054321-.1625977.0613403-.1776123.0559082-.0149536.0887451-.0756836.072937-.1346436-.0158081-.059082.0116577-.185791.0608521-.2813721.2372437-.4598389.2570801-.5655518.168457-.8963013-.0523071-.1953125-.0493164-.3673706.0065918-.3823853.0565186-.0151367.0299683-.2946167-.0595703-.6288452-.0895386-.3341675-.2062988-.5894775-.2628784-.5743408-.0558472.0149536-.1327515-.0888062-.1707153-.2305298-.0380249-.1418457-.1430664-.305481-.2337036-.3635864-.390686-.2509155-.5005493-.3430176-.5268555-.4413452-.0154419-.0574951-.0707397-.0930786-.1228638-.0791016-.0521851.0139771-.1500854-.0601807-.2177124-.164856-.1359863-.2108765-2.1088867-1.3609619-2.2634277-1.3195801-.0537109.0144043-.382019-.1394653-.7297363-.3417358-.3475342-.2024536-.6613159-.3601685-.6972656-.3505249-.0828247.0221558-.3157959-.0811768-.9435425-.4188843-.2750854-.1478271-.526062-.2619019-.5575562-.253479-.0632324.0169678-.5546265-.2296753-1.2868042-.6459961-.6459351-.3671875-.8069458-.4833984-.8399048-.6065674-.0154419-.0574951-.0737915-.0921021-.1296997-.0771484-.0559692.0150146-.1389771-.1121216-.1846313-.2826538-.121582-.4537354.149353-.7746582.8065796-.9550781.2930298-.0805054.522522-.1849365.5098877-.2321167-.0126343-.0471191.2879639-.1972046.6679688-.3335571.3799438-.1361694.7688599-.3198853.8641357-.4082031.0953979-.0883179.5424194-.2595825.9934082-.3804321.4511108-.1208496.8097534-.2584839.7971191-.3057861-.0127563-.0474243.3521729-.2119141.8109131-.3656006.4587402-.1537476.9163208-.3556519,1.0169067-.4487305.1004028-.0932617.5288086-.262207.9519653-.3756104.4230347-.1133423.7589111-.244751.7462158-.2919312-.0126953-.0473633.3464355-.2123413.7979736-.3665771.4515991-.1543579.8245239-.3336182.8286133-.3986206.0044556-.0702515.312439-.199646.7616577-.3200073.414856-.1112061.7437744-.2408447.7310181-.288269-.0126953-.0474243.2279663-.1816406.5349731-.2984009.3069458-.1166382.59375-.2727661.637085-.3469849.0435791-.0741577.2988892-.1936646.5673218-.265564.2683716-.0719604.4758301-.1759033.4610596-.2310791s.1300049-.1422729.3218994-.1937256c.1915894-.0513306.3990479-.1793823.4606934-.2846069.0670166-.1141968.2993774-.2414551.5771484-.3158569.2555542-.0684814.4535522-.1660156.4399414-.2167969-.0136108-.0507202.1045532-.1587524.2626343-.2400513.15802-.0812988.2761841-.1893921.2625732-.2401123-.0136108-.0507812.135376-.1351929.3311157-.1876831.1958008-.0524292.3439941-.1395264.3295288-.1936646-.0145264-.0540771.0805054-.1572876.2109985-.2293091s.2265625-.1712646.2133789-.220459c-.0131836-.0492554.0675659-.1139526.1793823-.1439209.1118774-.0299683.1912231-.0996094.1764526-.1547241-.0147705-.0552368.0418701-.1187134.1256714-.1411743.0838623-.0224609.1343994-.1085815.1122437-.1912842-.0250854-.0935059.0557251-.1760864.2139282-.2185059.1397705-.0374146.2412109-.116394.2253418-.1755371-.0371704-.1387329.1531372-.4631958.2939453-.5009155.0598755-.0160522.0951538-.0804443.0784302-.1429443-.000061-.0001221.097168-.1924438.161438-.4143066.1070557-.3695068.2660522-1.7982788-.2409668-2.4242554ZM37.3619826,22.79841c.1172485-.0314331.225769.0098877.2484741.0946045.0221558.0827637.1089478.132019.1928101.1095581.0839233-.022522.1646118.0042114.1793823.0593872.0147705.0551147.0949707.0820312.1781616.0597534.0831299-.0222778.4414673.1235352.7964478.3239136.3550415.2003784.6709595.3574829.7021484.3491211.078064-.0209351.4200439.1787109.4411621.2575073.0094604.0351562.2061768.1672974.4371948.293457.5141602.2810059.9651489,1.0109253.9151001,1.4810791-.0178833.1672974.0030518.4365845.0464478.5984497.043335.1617432.0447388.3039551.0028687.3157959-.0418701.0119019-.1151733.2250977-.1630859.4735718-.0479126.2485352-.1254272.4622803-.1724854.4748535-.046875.0125732-.0671997.0905151-.0449829.1732788.0221558.0827026-.0282593.1687622-.1122437.1912231-.0838013.0224609-.1395874.0891724-.1237793.1481934.0313721.1170044-.1446533.4610596-.2502441.4893188-.1055908.0283203-.2816162.3723755-.2503052.4893188.0158081.0591431-.0189209.1201782-.0771484.1358032-.0998535.0267334-.1937256.1359253-.4505005.5235596-.0595093.0900269-.1571655.1765137-.2171021.192627-.0599365.0160522-.0982056.069397-.085022.1185913.0131836.0490723-.0828247.1483154-.2133179.220459-.1305542.0720215-.2255249.1752319-.2109985.2293091.0144653.0541382-.0422363.1166992-.1262207.1392212-.0838013.0224609-.140625.085144-.1261597.1391602.0145264.0541382-.0804443.1572876-.2109375.2293701-.1305542.0720215-.2265625.1713257-.2133789.2203979.0131836.0492554-.0675659.1140137-.1793823.1439819s-.1925659.0946045-.1793823.1439209c.0131836.0491333-.0828247.1483765-.2133789.220459-.1305542.0719604-.2254639.1752319-.2109985.229248.0145264.0541382-.0880737.1290283-.2278442.1665039-.1397705.0374146-.2434692.1082153-.2302856.1575317.0131836.0491333-.0828247.1483765-.2133179.220459-.1305542.0720215-.2255249.1752319-.2109985.229248.0144653.0541382-.0880127.1290283-.2278442.1664429-.1398315.0374756-.243042.1096802-.2294312.1605225.0135498.0507202-.1045532.1587524-.2626343.2400513-.1580811.0812378-.2761841.1893311-.2626343.2399902.0136108.0508423-.0699463.1177979-.185791.1488037-.1159058.0310669-.2611084.1425171-.322937.2476807-.0615845.1052856-.2232666.2210083-.3590088.2573853-.1359253.036438-.2349243.1113281-.2201538.1664429.0148315.0552368-.0874634.1309814-.2272949.168396-.1398315.0374756-.2426147.1112671-.2285156.1639404.0140991.0526123-.1265259.1681519-.3126221.2568359-.1860352.0886841-.3274536.201355-.3143311.2503052s-.1101685.125-.2739258.1688843c-.1637573.0438232-.3482666.1658936-.4099731.2709961-.0616455.1052246-.2527466.2289429-.4245605.2749634s-.3001099.1287842-.2853394.18396c.0147705.0551147-.0756836.1292725-.2010498.1647949-.1254272.0354004-.2990723.15448-.3858032.2645874-.0869751.1099243-.2636108.2282715-.3927002.2628784-.1292114.0346069-.2227173.1081543-.2079468.163208.0147705.0551758-.1213379.1414795-.3027344.1920776-.1813965.050354-.4007568.1817627-.4874878.2918091-.0869141.1099854-.3092651.2406006-.4943237.2901611-.1850586.0496216-.3243408.1353149-.3096313.1903687.0148315.0551758-.0874634.1309204-.227356.168396-.2033081.0545044-.2675781.0180054-.3212891-.1825562-.0369263-.1378174-.0214844-.2628784.0344849-.277832.0559692-.0150146.0771484-.1188965.0471191-.230896-.0300293-.1120605.007019-.2480469.0824585-.3023071.0753174-.0541992.1081543-.206543.0727539-.338501-.0353394-.131958-.0234985-.2508545.0264893-.2642822.0496826-.0133057.0890503-.1446533.0872192-.2920532-.0018921-.1472168.0415649-.2797241.0963135-.2944336.0549316-.0147095.0695801-.1394043.0325928-.2774048-.0369263-.1378174-.0264282-.2615356.0235596-.2749023.0498657-.0133667.0891724-.1448364.0872803-.2920532s.0415039-.2797852.0963135-.2944946c.0549316-.0147095.069519-.1395264.0325928-.2773438s-.0264282-.2615967.0234985-.2749634c.0498657-.0133667.0891724-.1448364.0872803-.2920532-.0018311-.1472778.0415039-.2797241.0963745-.2944336.0549316-.0147095.069458-.1395874.0325317-.2774048-.0369263-.1378784-.0264282-.2615967.0234985-.2749634.0498657-.0133667.0891724-.1447754.0873413-.2920532-.0018921-.1472168.0414429-.2797852.0963745-.2944946.0548706-.0147095.081543-.0943604.0593872-.177063s.0054321-.1626587.0614014-.1776733.0714722-.1400757.0345459-.2779541c-.0369873-.1378174-.0223999-.2625732.0325317-.2772827.0548706-.0147095.0982056-.1472778.0963745-.2944946-.0018921-.1472778.0374146-.2787476.0872803-.2921143.0499268-.0133667.0604248-.137085.0234985-.2749023-.0369263-.1379395-.0223389-.2626953.0325317-.2774048s.0982666-.1471558.0963745-.2944336c-.0018311-.1473389.0374146-.2786865.0873413-.2920532s.0661011-.1159668.0360718-.2280273.007019-.2481079.0824585-.3022461c.0753174-.0541992.1081543-.206543.0727539-.338562-.0353394-.131958-.0184326-.2521362.0373535-.2670898.0559082-.0149536.0771484-.1188965.0471191-.230957s.0071411-.2480469.0825195-.3022461c.0753174-.0542603.1080933-.206604.0727539-.338562-.0353394-.131897-.0238037-.2507935.0254517-.2639771.0494385-.0132446.098938-.1112061.1100464-.2174683.0377197-.3634033.1417847-.7096558.2194214-.7304688.0426636-.0114746.0473633-.1335449.010376-.2714844-.0369263-.1378174-.0222168-.2626953.0325928-.2774048.0548096-.0146484.0982666-.1472168.0963745-.2944336-.0018311-.1472168.0374146-.2786865.0873413-.2920532.0498047-.0133667.0734863-.0883179.0525513-.1665649-.0479736-.1789551.1265259-.8469849.2285767-.8753052.0419312-.0115356.0471802-.1289673.0118408-.2609863-.0354004-.131958-.0026855-.2842407.0727539-.338501.0753174-.0541382.1124878-.1901245.0824585-.3023071-.0300293-.1119385-.0204468-.2131348.0214233-.2248535.0418701-.0120239.1119995-.2483521.1560059-.5253906.0441895-.2772827.1156616-.5136108.1589966-.5252686.0435181-.0116577.0547485-.1113892.0252075-.2216797-.029541-.1103516-.0130005-.2114258.0369263-.2247925.0498657-.0133667.0892334-.1448975.0872803-.2921143-.0031738-.2467651.166748-.4306641.21875-.2366333.0124512.0463867.2166138.1246338.4536743.1738892.4116211.0855103.4949341.1133423.920166.3076782.1020508.0466309.2331543.0718384.2913818.0562744.0582886-.015625.118042.0167236.1328125.0718384.0148315.0552368.1412354.0696411.2810669.0322266.1582031-.0424194.2694092-.0113525.2944946.0822754.0221558.0826416.1109619.1314697.1976318.1082153.0865479-.0231934.2936401.0421753.460083.1453247.166626.1030884.3838501.1658325.4828491.1393433.098938-.0265503.3162231.0361938.4827881.1392822.1664429.1031494.3963623.1624146.5109253.1317139ZM53.9138015,6.4350066c-.0598755.0160522-.0907593.0968018-.0685425.1795654.0250244.0935059-.0557251.1761475-.2139282.2185059-.1397705.0374756-.2420654.1132812-.2272949.168396.0147705.0551758-.0843506.1300659-.2200928.1664429s-.2973633.1521606-.3591309.2574463c-.0617065.1051025-.2755737.2350464-.4754028.2885742-.199646.0534668-.3526001.1364746-.3397217.1845093.0128174.0479126-.1859741.1690063-.4419556.269043-.2560425.0999756-.46875.2358398-.4731445.3019409-.0043945.0690918-.2626953.1884155-.6091919.28125-.3309326.0886841-.5905762.2025146-.5770264.2529907.0134888.050415-.3100586.215332-.7191162.366394-.4090576.1511841-.7330322.3146362-.7200317.3632202.0130615.0487671-.3880005.1989136-.8913574.3337402-.5032349.1348877-.9040527.2866211-.8905029.3370972.0134888.050415-.4700317.2587891-1.074646.4628906-.6046753.2041626-1.0887451.4105225-1.0758667.4586182.0128784.0479736-.4761963.2211914-1.0866089.3847656-.6104736.1635742-1.1137695.34375-1.1186523.4004517-.0048218.0565796-.5149536.272644-1.133667.4801636-.6185913.2074585-1.114502.4160767-1.1018677.4631348.0126953.0473633-.4992065.2260742-1.1377563.3971558-.6384277.1710815-1.1645508.357605-1.1693726.4146729-.0046997.0569458-.4690552.2609253-1.0319214.4530029-.5628052.1922607-1.0130005.3882446-1.0003662.4354858.0126343.0471191-.3429565.1838989-.7904053.303772-.4909668.1315308-.8243408.177063-.8410645.114624-.0153198-.0570068.0339966-.1478271.109314-.2020264.0754395-.0542603.1141968-.184021.0861816-.2883911-.0279541-.1044312-.0101318-.2006836.039856-.2141113.0498657-.0133667.0891113-.1447754.0872803-.2920532-.0018921-.1472168.0415039-.2797852.0963745-.2944946s.081543-.0943604.0593872-.177124c-.0221558-.0826416.0054321-.1626587.0614014-.1776123.0559692-.0150146.0727539-.1351929.0374146-.2671509-.0353394-.132019-.0026245-.2843628.0727539-.338562.0753174-.0541382.1124878-.1901245.0823975-.3023071-.0299683-.1118774-.0136719-.2144775.0361328-.2278442.0498657-.0133667.0891724-.1448364.0872803-.2920532-.00177-.1472778.041626-.2798462.0963745-.2944946.0548706-.0147095.0750732-.1188965.0449219-.2315063-.0302124-.1126099.0119019-.3283691.0936279-.4796753.0817261-.151123.1471558-.3843994.1454468-.5180054-.00177-.1337891.0377197-.2539673.0875854-.267334.0499268-.0134277.0661011-.1159668.0360718-.2280884-.0300293-.1119995.0071411-.2480469.0824585-.3021851.0753174-.0542603.1141968-.184021.0861816-.2884521-.0279541-.1043091-.0166626-.1994629.0250854-.2113037.0418091-.0119019.1151733-.2250366.1630859-.4735107.0480347-.2485962.1255493-.4623413.1724854-.4749146.046875-.0125732.0563354-.1308594.0209961-.2628174s-.0025635-.2842407.0727539-.338501c.0755005-.0541382.1125488-.1901855.0825195-.3021851-.0300293-.1120605-.0088501-.2160034.0471191-.2310181.0559082-.0150146.0835571-.0947876.0614014-.1776733-.03302-.1231079.1356201-.1975098.932251-.4109497.5349731-.1433716,1.0706787-.2382812,1.1903687-.2110596.119873.0272827.9147339-.1055908,1.7662964-.2952271.8516846-.1896973,1.5587769-.3068237,1.571228-.2603149.0125122.0465088.5748291-.0632935,1.2495117-.2440796.6747437-.1808472,1.3301392-.3052979,1.4562988-.2763672.1262207.0287476.71521-.0493164,1.3087158-.1734619.5934448-.1239014,1.0892944-.1870728,1.1018677-.1401978.0125122.046814.3374634.0007324.7221069-.1022949.3916016-.1049805.8775635-.1643066,1.1046753-.1348267.2228394.0289917.6125488-.0029297.8660278-.0708618.25354-.0679321.4729614-.0782471.4877319-.0231934.0147705.0551147.2445679.043457.5106812-.0258789.2659912-.069519.5903931-.0839233.7205811-.0319214.130249.0517578.3882446.0536499.5732422.0040894.1850586-.0495605.3486328-.0449829.3634033.0102539.0147705.0550537.1412354.0695801.2810059.0321045s.2660522-.0239868.2805786.0302124c.0144653.0540161.1483154.0960083.2973633.0931396.1490479-.0029297.2817993.0349731.2949829.0841675s.0925903.071106.1765137.048645c.0838623-.0224609.1705933.0266724.1928101.1094971.0221558.0826416.0859985.1381836.1419678.1231689.0558472-.0149536.1569214.1789551.2244263.4309692.1184082.4418335.0370483.7884521-.1998901.8519287Z" fill="#191919" stroke-width="0"/>
  <text transform="translate(70.1702865 41.370214)" fill="#000" font-family="HighTowerText-Reg, 'High Tower Text'" font-size="48"><tspan x="0" y="0">BOTTIGO</tspan></text>
  <path d="M33.489363,74.3829787" fill="#191919" stroke-width="0"/>
  <path d="M40.2978728,83.9148937" fill="#191919" stroke-width="0"/>
  <path d="M40.6382983,75.7446809" fill="#191919" stroke-width="0"/>
</svg>