<svg xmlns="http://www.w3.org/2000/svg" viewBox="0 0 64 64" width="20" height="20">
  <path fill="#2cb742" d="M0 64l5.504-16.511c-2.793-4.697-4.401-10.179-4.401-16.041 0-17.368 14.080-31.448 31.448-31.448s31.448 14.080 31.448 31.448-14.080 31.448-31.448 31.448c-5.284 0-10.261-1.31-14.632-3.612l-17.92 4.715z"></path>
  <path fill="#fff" d="M52.616 41.914c-1.452-2.744-6.807-5.883-6.807-5.883-1.212-0.691-2.674-0.768-3.364 0.463 0 0-1.74 2.087-2.183 2.387-2.022 1.369-3.894 1.316-5.784-0.574l-8.786-8.786c-1.89-1.89-1.943-3.763-0.574-5.784 0.3-0.442 2.387-2.183 2.387-2.183 1.231-0.692 1.154-2.153 0.463-3.364 0 0-3.138-5.355-5.883-6.807-1.167-0.618-2.601-0.402-3.534 0.532l-1.94 1.94c-6.154 6.154-3.124 13.101 3.030 19.255l11.249 11.249c6.154 6.154 13.101 9.184 19.255 3.030l1.94-1.94c0.934-0.936 1.149-2.369 0.531-3.535z"></path>
</svg>