<svg width="24" height="25" viewBox="0 0 24 25" fill="none" xmlns="http://www.w3.org/2000/svg">
<path d="M8 19.5C8.53043 19.5 9.03914 19.2893 9.41421 18.9142C9.78929 18.5391 10 18.0304 10 17.5C10 16.9696 9.78929 16.4609 9.41421 16.0858C9.03914 15.7107 8.53043 15.5 8 15.5C7.46957 15.5 6.96086 15.7107 6.58579 16.0858C6.21071 16.4609 6 16.9696 6 17.5C6 18.0304 6.21071 18.5391 6.58579 18.9142C6.96086 19.2893 7.46957 19.5 8 19.5V19.5ZM18 19.5C18.5304 19.5 19.0391 19.2893 19.4142 18.9142C19.7893 18.5391 20 18.0304 20 17.5C20 16.9696 19.7893 16.4609 19.4142 16.0858C19.0391 15.7107 18.5304 15.5 18 15.5C17.4696 15.5 16.9609 15.7107 16.5858 16.0858C16.2107 16.4609 16 16.9696 16 17.5C16 18.0304 16.2107 18.5391 16.5858 18.9142C16.9609 19.2893 17.4696 19.5 18 19.5V19.5Z" stroke="#191919" stroke-width="1.5" stroke-miterlimit="1.5" stroke-linecap="round" stroke-linejoin="round"/>
<path d="M10.05 17.5H15V7.1C15 6.94087 14.9368 6.78826 14.8243 6.67574C14.7117 6.56321 14.5591 6.5 14.4 6.5H1M5.65 17.5H3.6C3.52121 17.5 3.44319 17.4845 3.37039 17.4543C3.29759 17.4242 3.23145 17.38 3.17574 17.3243C3.12002 17.2685 3.07583 17.2024 3.04567 17.1296C3.01552 17.0568 3 16.9788 3 16.9V12" stroke="#191919" stroke-width="1.5" stroke-linecap="round"/>
<path d="M2 9.5H6" stroke="#191919" stroke-width="1.5" stroke-linecap="round" stroke-linejoin="round"/>
<path d="M15 9.5H20.61C20.726 9.50003 20.8395 9.53367 20.9367 9.59685C21.034 9.66003 21.1108 9.75005 21.158 9.856L22.948 13.884C22.9821 13.9605 22.9998 14.0433 23 14.127V16.9C23 16.9788 22.9845 17.0568 22.9543 17.1296C22.9242 17.2024 22.88 17.2685 22.8243 17.3243C22.7685 17.38 22.7024 17.4242 22.6296 17.4543C22.5568 17.4845 22.4788 17.5 22.4 17.5H20.5M15 17.5H16" stroke="#191919" stroke-width="1.5" stroke-linecap="round"/>
</svg>
